<mxfile host="Electron" agent="Mozilla/5.0 (Macintosh; Intel Mac OS X 10_15_7) AppleWebKit/537.36 (KHTML, like Gecko) draw.io/27.0.5 Chrome/134.0.6998.205 Electron/35.3.0 Safari/537.36" version="27.0.5">
  <diagram id="C5RBs43oDa-KdzZeNtuy" name="Page-1">
    <mxGraphModel dx="1734" dy="679" grid="1" gridSize="10" guides="1" tooltips="1" connect="1" arrows="1" fold="1" page="1" pageScale="1" pageWidth="827" pageHeight="1169" math="0" shadow="0">
      <root>
        <mxCell id="WIyWlLk6GJQsqaUBKTNV-0" />
        <mxCell id="WIyWlLk6GJQsqaUBKTNV-1" parent="WIyWlLk6GJQsqaUBKTNV-0" />
        <mxCell id="xzr1AYg_U-AbGogxpXCZ-6" style="edgeStyle=orthogonalEdgeStyle;rounded=0;orthogonalLoop=1;jettySize=auto;html=1;exitX=0.5;exitY=1;exitDx=0;exitDy=0;" parent="WIyWlLk6GJQsqaUBKTNV-1" source="xzr1AYg_U-AbGogxpXCZ-48" target="xzr1AYg_U-AbGogxpXCZ-5" edge="1">
          <mxGeometry relative="1" as="geometry" />
        </mxCell>
        <mxCell id="xzr1AYg_U-AbGogxpXCZ-2" value="Click Check" style="rounded=1;whiteSpace=wrap;html=1;glass=0;strokeWidth=1;shadow=0;" parent="WIyWlLk6GJQsqaUBKTNV-1" vertex="1">
          <mxGeometry x="590" y="135" width="120" height="20" as="geometry" />
        </mxCell>
        <mxCell id="xzr1AYg_U-AbGogxpXCZ-3" value="Select Word Count Points" style="text;strokeColor=none;fillColor=none;align=left;verticalAlign=middle;spacingLeft=4;spacingRight=4;overflow=hidden;points=[[0,0.5],[1,0.5]];portConstraint=eastwest;rotatable=0;whiteSpace=wrap;html=1;fontStyle=1" parent="WIyWlLk6GJQsqaUBKTNV-1" vertex="1">
          <mxGeometry x="575" y="25" width="175" height="30" as="geometry" />
        </mxCell>
        <mxCell id="xzr1AYg_U-AbGogxpXCZ-5" value="&lt;b&gt;If Correct&lt;/b&gt;&lt;div&gt;&lt;br/&gt;&lt;/div&gt;" style="rounded=0;whiteSpace=wrap;html=1;align=left;fontSize=10;fillColor=#eeeeee;strokeColor=#36393d;glass=1;" parent="WIyWlLk6GJQsqaUBKTNV-1" vertex="1">
          <mxGeometry x="623.1800000000001" y="185" width="53.63" height="30" as="geometry" />
        </mxCell>
        <mxCell id="xzr1AYg_U-AbGogxpXCZ-7" value="Increment +1" style="rounded=1;whiteSpace=wrap;html=1;glass=0;strokeWidth=1;shadow=0;" parent="WIyWlLk6GJQsqaUBKTNV-1" vertex="1">
          <mxGeometry x="680" y="225" width="80" height="20" as="geometry" />
        </mxCell>
        <mxCell id="xzr1AYg_U-AbGogxpXCZ-9" value="&lt;div&gt;5 points&lt;/div&gt;" style="rounded=1;whiteSpace=wrap;html=1;glass=0;strokeWidth=1;shadow=0;fillColor=#f5f5f5;fontColor=#333333;strokeColor=#666666;" parent="WIyWlLk6GJQsqaUBKTNV-1" vertex="1">
          <mxGeometry x="690" y="135" width="40" height="30" as="geometry" />
        </mxCell>
        <mxCell id="xzr1AYg_U-AbGogxpXCZ-10" value="&lt;div&gt;6 points&lt;/div&gt;" style="rounded=1;whiteSpace=wrap;html=1;glass=0;strokeWidth=1;shadow=0;fillColor=#d5e8d4;strokeColor=#82b366;" parent="WIyWlLk6GJQsqaUBKTNV-1" vertex="1">
          <mxGeometry x="760" y="225" width="40" height="30" as="geometry" />
        </mxCell>
        <mxCell id="xzr1AYg_U-AbGogxpXCZ-136" style="edgeStyle=orthogonalEdgeStyle;rounded=0;orthogonalLoop=1;jettySize=auto;html=1;entryX=0.5;entryY=0;entryDx=0;entryDy=0;" parent="WIyWlLk6GJQsqaUBKTNV-1" source="xzr1AYg_U-AbGogxpXCZ-11" target="xzr1AYg_U-AbGogxpXCZ-135" edge="1">
          <mxGeometry relative="1" as="geometry" />
        </mxCell>
        <mxCell id="xzr1AYg_U-AbGogxpXCZ-11" value="Dencrement -3" style="rounded=1;whiteSpace=wrap;html=1;glass=0;strokeWidth=1;shadow=0;" parent="WIyWlLk6GJQsqaUBKTNV-1" vertex="1">
          <mxGeometry x="510" y="225" width="90" height="20" as="geometry" />
        </mxCell>
        <mxCell id="xzr1AYg_U-AbGogxpXCZ-12" value="&lt;div&gt;2 points&lt;/div&gt;" style="rounded=1;whiteSpace=wrap;html=1;glass=0;strokeWidth=1;shadow=0;fillColor=#e1d5e7;strokeColor=#9673a6;" parent="WIyWlLk6GJQsqaUBKTNV-1" vertex="1">
          <mxGeometry x="600" y="225" width="40" height="30" as="geometry" />
        </mxCell>
        <mxCell id="xzr1AYg_U-AbGogxpXCZ-13" style="edgeStyle=orthogonalEdgeStyle;rounded=0;orthogonalLoop=1;jettySize=auto;html=1;exitX=0.542;exitY=1.097;exitDx=0;exitDy=0;exitPerimeter=0;" parent="WIyWlLk6GJQsqaUBKTNV-1" source="xzr1AYg_U-AbGogxpXCZ-44" target="xzr1AYg_U-AbGogxpXCZ-16" edge="1">
          <mxGeometry relative="1" as="geometry" />
        </mxCell>
        <mxCell id="xzr1AYg_U-AbGogxpXCZ-14" value="Click Check" style="rounded=1;whiteSpace=wrap;html=1;glass=0;strokeWidth=1;shadow=0;" parent="WIyWlLk6GJQsqaUBKTNV-1" vertex="1">
          <mxGeometry x="215" y="525" width="120" height="20" as="geometry" />
        </mxCell>
        <mxCell id="xzr1AYg_U-AbGogxpXCZ-15" value="Select Word Count Points" style="text;strokeColor=none;fillColor=none;align=left;verticalAlign=middle;spacingLeft=4;spacingRight=4;overflow=hidden;points=[[0,0.5],[1,0.5]];portConstraint=eastwest;rotatable=0;whiteSpace=wrap;html=1;fontStyle=1" parent="WIyWlLk6GJQsqaUBKTNV-1" vertex="1">
          <mxGeometry x="210" y="415" width="190" height="30" as="geometry" />
        </mxCell>
        <mxCell id="xzr1AYg_U-AbGogxpXCZ-16" value="&lt;b&gt;If Correct&lt;/b&gt;&lt;div&gt;&lt;br/&gt;&lt;/div&gt;" style="rounded=0;whiteSpace=wrap;html=1;align=left;fontSize=10;fillColor=#eeeeee;strokeColor=#36393d;glass=1;" parent="WIyWlLk6GJQsqaUBKTNV-1" vertex="1">
          <mxGeometry x="248.18" y="575" width="53.63" height="30" as="geometry" />
        </mxCell>
        <mxCell id="xzr1AYg_U-AbGogxpXCZ-17" value="Increment +1" style="rounded=1;whiteSpace=wrap;html=1;glass=0;strokeWidth=1;shadow=0;" parent="WIyWlLk6GJQsqaUBKTNV-1" vertex="1">
          <mxGeometry x="305" y="615" width="80" height="20" as="geometry" />
        </mxCell>
        <mxCell id="xzr1AYg_U-AbGogxpXCZ-18" value="&lt;div&gt;2 points&lt;/div&gt;" style="rounded=1;whiteSpace=wrap;html=1;glass=0;strokeWidth=1;shadow=0;fillColor=#f5f5f5;fontColor=#333333;strokeColor=#666666;" parent="WIyWlLk6GJQsqaUBKTNV-1" vertex="1">
          <mxGeometry x="315" y="525" width="40" height="30" as="geometry" />
        </mxCell>
        <mxCell id="xzr1AYg_U-AbGogxpXCZ-19" value="&lt;div&gt;3 points&lt;/div&gt;" style="rounded=1;whiteSpace=wrap;html=1;glass=0;strokeWidth=1;shadow=0;fillColor=#d5e8d4;strokeColor=#82b366;" parent="WIyWlLk6GJQsqaUBKTNV-1" vertex="1">
          <mxGeometry x="385" y="615" width="40" height="30" as="geometry" />
        </mxCell>
        <mxCell id="xzr1AYg_U-AbGogxpXCZ-20" value="Dencrement -3" style="rounded=1;whiteSpace=wrap;html=1;glass=0;strokeWidth=1;shadow=0;" parent="WIyWlLk6GJQsqaUBKTNV-1" vertex="1">
          <mxGeometry x="135" y="615" width="90" height="20" as="geometry" />
        </mxCell>
        <mxCell id="xzr1AYg_U-AbGogxpXCZ-21" value="&lt;div&gt;0 points&lt;/div&gt;" style="rounded=1;whiteSpace=wrap;html=1;glass=0;strokeWidth=1;shadow=0;fillColor=#e1d5e7;strokeColor=#9673a6;" parent="WIyWlLk6GJQsqaUBKTNV-1" vertex="1">
          <mxGeometry x="225" y="615" width="40" height="30" as="geometry" />
        </mxCell>
        <mxCell id="xzr1AYg_U-AbGogxpXCZ-22" style="edgeStyle=orthogonalEdgeStyle;rounded=0;orthogonalLoop=1;jettySize=auto;html=1;" parent="WIyWlLk6GJQsqaUBKTNV-1" source="xzr1AYg_U-AbGogxpXCZ-23" target="xzr1AYg_U-AbGogxpXCZ-25" edge="1">
          <mxGeometry relative="1" as="geometry" />
        </mxCell>
        <mxCell id="xzr1AYg_U-AbGogxpXCZ-23" value="Has points for word" style="rounded=1;whiteSpace=wrap;html=1;glass=0;strokeWidth=1;shadow=0;" parent="WIyWlLk6GJQsqaUBKTNV-1" vertex="1">
          <mxGeometry x="212.5" y="55" width="120" height="20" as="geometry" />
        </mxCell>
        <mxCell id="xzr1AYg_U-AbGogxpXCZ-24" value="Select Word Count Points" style="text;strokeColor=none;fillColor=none;align=left;verticalAlign=middle;spacingLeft=4;spacingRight=4;overflow=hidden;points=[[0,0.5],[1,0.5]];portConstraint=eastwest;rotatable=0;whiteSpace=wrap;html=1;fontStyle=1" parent="WIyWlLk6GJQsqaUBKTNV-1" vertex="1">
          <mxGeometry x="212.5" y="25" width="197.5" height="30" as="geometry" />
        </mxCell>
        <mxCell id="xzr1AYg_U-AbGogxpXCZ-25" value="&lt;b&gt;If Correct&lt;/b&gt;&lt;div&gt;&lt;br/&gt;&lt;/div&gt;" style="rounded=0;whiteSpace=wrap;html=1;align=left;fontSize=10;fillColor=#eeeeee;strokeColor=#36393d;glass=1;" parent="WIyWlLk6GJQsqaUBKTNV-1" vertex="1">
          <mxGeometry x="245.68000000000006" y="195" width="53.63" height="30" as="geometry" />
        </mxCell>
        <mxCell id="xzr1AYg_U-AbGogxpXCZ-26" value="Increment +1" style="rounded=1;whiteSpace=wrap;html=1;glass=0;strokeWidth=1;shadow=0;" parent="WIyWlLk6GJQsqaUBKTNV-1" vertex="1">
          <mxGeometry x="292.5" y="240" width="80" height="20" as="geometry" />
        </mxCell>
        <mxCell id="xzr1AYg_U-AbGogxpXCZ-27" value="&lt;div&gt;0 points&lt;/div&gt;" style="rounded=1;whiteSpace=wrap;html=1;glass=0;strokeWidth=1;shadow=0;fillColor=#f5f5f5;fontColor=#333333;strokeColor=#666666;" parent="WIyWlLk6GJQsqaUBKTNV-1" vertex="1">
          <mxGeometry x="332.5" y="55" width="40" height="30" as="geometry" />
        </mxCell>
        <mxCell id="xzr1AYg_U-AbGogxpXCZ-28" value="&lt;div&gt;1 points&lt;/div&gt;" style="rounded=1;whiteSpace=wrap;html=1;glass=0;strokeWidth=1;shadow=0;fillColor=#d5e8d4;strokeColor=#82b366;" parent="WIyWlLk6GJQsqaUBKTNV-1" vertex="1">
          <mxGeometry x="372.5" y="240" width="40" height="30" as="geometry" />
        </mxCell>
        <mxCell id="xzr1AYg_U-AbGogxpXCZ-35" style="edgeStyle=orthogonalEdgeStyle;rounded=0;orthogonalLoop=1;jettySize=auto;html=1;curved=1;" parent="WIyWlLk6GJQsqaUBKTNV-1" source="xzr1AYg_U-AbGogxpXCZ-29" target="xzr1AYg_U-AbGogxpXCZ-34" edge="1">
          <mxGeometry relative="1" as="geometry" />
        </mxCell>
        <mxCell id="xzr1AYg_U-AbGogxpXCZ-29" value="Dencrement -3" style="rounded=1;whiteSpace=wrap;html=1;glass=0;strokeWidth=1;shadow=0;" parent="WIyWlLk6GJQsqaUBKTNV-1" vertex="1">
          <mxGeometry x="137.5" y="240" width="90" height="20" as="geometry" />
        </mxCell>
        <mxCell id="xzr1AYg_U-AbGogxpXCZ-30" value="&lt;div&gt;0 points&lt;/div&gt;" style="rounded=1;whiteSpace=wrap;html=1;glass=0;strokeWidth=1;shadow=0;fillColor=#e1d5e7;strokeColor=#9673a6;" parent="WIyWlLk6GJQsqaUBKTNV-1" vertex="1">
          <mxGeometry x="227.5" y="240" width="40" height="30" as="geometry" />
        </mxCell>
        <mxCell id="xzr1AYg_U-AbGogxpXCZ-31" value="Show Demonstration" style="rounded=1;whiteSpace=wrap;html=1;glass=0;strokeWidth=1;shadow=0;" parent="WIyWlLk6GJQsqaUBKTNV-1" vertex="1">
          <mxGeometry x="212.5" y="105" width="120" height="20" as="geometry" />
        </mxCell>
        <mxCell id="xzr1AYg_U-AbGogxpXCZ-32" value="Click Check" style="rounded=1;whiteSpace=wrap;html=1;glass=0;strokeWidth=1;shadow=0;" parent="WIyWlLk6GJQsqaUBKTNV-1" vertex="1">
          <mxGeometry x="212.5" y="155" width="120" height="20" as="geometry" />
        </mxCell>
        <mxCell id="xzr1AYg_U-AbGogxpXCZ-33" value="&lt;div&gt;0 points&lt;/div&gt;" style="rounded=1;whiteSpace=wrap;html=1;glass=0;strokeWidth=1;shadow=0;fillColor=#f5f5f5;fontColor=#333333;strokeColor=#666666;" parent="WIyWlLk6GJQsqaUBKTNV-1" vertex="1">
          <mxGeometry x="312.5" y="155" width="40" height="30" as="geometry" />
        </mxCell>
        <mxCell id="xzr1AYg_U-AbGogxpXCZ-34" value="Show Demonstration" style="rounded=1;whiteSpace=wrap;html=1;glass=0;strokeWidth=1;shadow=0;" parent="WIyWlLk6GJQsqaUBKTNV-1" vertex="1">
          <mxGeometry x="122.5" y="326.65" width="120" height="20" as="geometry" />
        </mxCell>
        <mxCell id="xzr1AYg_U-AbGogxpXCZ-36" style="edgeStyle=orthogonalEdgeStyle;rounded=0;orthogonalLoop=1;jettySize=auto;html=1;curved=1;" parent="WIyWlLk6GJQsqaUBKTNV-1" target="xzr1AYg_U-AbGogxpXCZ-37" edge="1">
          <mxGeometry relative="1" as="geometry">
            <mxPoint x="180" y="635" as="sourcePoint" />
          </mxGeometry>
        </mxCell>
        <mxCell id="xzr1AYg_U-AbGogxpXCZ-37" value="Show Demonstration" style="rounded=1;whiteSpace=wrap;html=1;glass=0;strokeWidth=1;shadow=0;" parent="WIyWlLk6GJQsqaUBKTNV-1" vertex="1">
          <mxGeometry x="120" y="700" width="120" height="20" as="geometry" />
        </mxCell>
        <mxCell id="xzr1AYg_U-AbGogxpXCZ-38" style="edgeStyle=orthogonalEdgeStyle;rounded=0;orthogonalLoop=1;jettySize=auto;html=1;curved=1;exitX=0;exitY=0.5;exitDx=0;exitDy=0;entryX=0.5;entryY=0;entryDx=0;entryDy=0;" parent="WIyWlLk6GJQsqaUBKTNV-1" source="xzr1AYg_U-AbGogxpXCZ-5" target="xzr1AYg_U-AbGogxpXCZ-11" edge="1">
          <mxGeometry relative="1" as="geometry">
            <mxPoint x="570" y="295" as="sourcePoint" />
            <mxPoint x="760" y="245" as="targetPoint" />
          </mxGeometry>
        </mxCell>
        <mxCell id="xzr1AYg_U-AbGogxpXCZ-39" style="edgeStyle=orthogonalEdgeStyle;rounded=0;orthogonalLoop=1;jettySize=auto;html=1;entryX=0.5;entryY=0;entryDx=0;entryDy=0;curved=1;exitX=1;exitY=0.5;exitDx=0;exitDy=0;" parent="WIyWlLk6GJQsqaUBKTNV-1" source="xzr1AYg_U-AbGogxpXCZ-5" target="xzr1AYg_U-AbGogxpXCZ-7" edge="1">
          <mxGeometry relative="1" as="geometry">
            <mxPoint x="570" y="295" as="sourcePoint" />
            <mxPoint x="760" y="245" as="targetPoint" />
          </mxGeometry>
        </mxCell>
        <mxCell id="xzr1AYg_U-AbGogxpXCZ-40" style="edgeStyle=orthogonalEdgeStyle;rounded=0;orthogonalLoop=1;jettySize=auto;html=1;curved=1;exitX=0;exitY=0.5;exitDx=0;exitDy=0;entryX=0.5;entryY=0;entryDx=0;entryDy=0;" parent="WIyWlLk6GJQsqaUBKTNV-1" source="xzr1AYg_U-AbGogxpXCZ-16" target="xzr1AYg_U-AbGogxpXCZ-20" edge="1">
          <mxGeometry relative="1" as="geometry">
            <mxPoint x="258" y="450" as="sourcePoint" />
            <mxPoint x="190" y="475" as="targetPoint" />
          </mxGeometry>
        </mxCell>
        <mxCell id="xzr1AYg_U-AbGogxpXCZ-41" style="edgeStyle=orthogonalEdgeStyle;rounded=0;orthogonalLoop=1;jettySize=auto;html=1;curved=1;exitX=1;exitY=0.5;exitDx=0;exitDy=0;entryX=0.5;entryY=0;entryDx=0;entryDy=0;" parent="WIyWlLk6GJQsqaUBKTNV-1" source="xzr1AYg_U-AbGogxpXCZ-16" target="xzr1AYg_U-AbGogxpXCZ-17" edge="1">
          <mxGeometry relative="1" as="geometry">
            <mxPoint x="258" y="600" as="sourcePoint" />
            <mxPoint x="130" y="595" as="targetPoint" />
          </mxGeometry>
        </mxCell>
        <mxCell id="xzr1AYg_U-AbGogxpXCZ-42" style="edgeStyle=orthogonalEdgeStyle;rounded=0;orthogonalLoop=1;jettySize=auto;html=1;entryX=0.5;entryY=0;entryDx=0;entryDy=0;curved=1;exitX=1;exitY=0.5;exitDx=0;exitDy=0;" parent="WIyWlLk6GJQsqaUBKTNV-1" source="xzr1AYg_U-AbGogxpXCZ-25" target="xzr1AYg_U-AbGogxpXCZ-26" edge="1">
          <mxGeometry relative="1" as="geometry">
            <mxPoint x="82.5" y="265" as="sourcePoint" />
            <mxPoint x="272.5" y="215" as="targetPoint" />
          </mxGeometry>
        </mxCell>
        <mxCell id="xzr1AYg_U-AbGogxpXCZ-43" style="edgeStyle=orthogonalEdgeStyle;rounded=0;orthogonalLoop=1;jettySize=auto;html=1;entryX=0.5;entryY=0;entryDx=0;entryDy=0;curved=1;exitX=0;exitY=0.5;exitDx=0;exitDy=0;" parent="WIyWlLk6GJQsqaUBKTNV-1" source="xzr1AYg_U-AbGogxpXCZ-25" target="xzr1AYg_U-AbGogxpXCZ-29" edge="1">
          <mxGeometry relative="1" as="geometry">
            <mxPoint x="82.5" y="265" as="sourcePoint" />
            <mxPoint x="272.5" y="215" as="targetPoint" />
          </mxGeometry>
        </mxCell>
        <mxCell id="xzr1AYg_U-AbGogxpXCZ-44" value="Has points for word" style="rounded=1;whiteSpace=wrap;html=1;glass=0;strokeWidth=1;shadow=0;" parent="WIyWlLk6GJQsqaUBKTNV-1" vertex="1">
          <mxGeometry x="210" y="455" width="120" height="20" as="geometry" />
        </mxCell>
        <mxCell id="xzr1AYg_U-AbGogxpXCZ-45" value="&lt;div&gt;2 points&lt;/div&gt;" style="rounded=1;whiteSpace=wrap;html=1;glass=0;strokeWidth=1;shadow=0;fillColor=#f5f5f5;fontColor=#333333;strokeColor=#666666;" parent="WIyWlLk6GJQsqaUBKTNV-1" vertex="1">
          <mxGeometry x="330" y="455" width="40" height="30" as="geometry" />
        </mxCell>
        <mxCell id="xzr1AYg_U-AbGogxpXCZ-46" value="Show Select Word" style="rounded=1;whiteSpace=wrap;html=1;glass=0;strokeWidth=1;shadow=0;" parent="WIyWlLk6GJQsqaUBKTNV-1" vertex="1">
          <mxGeometry x="215" y="495" width="120" height="20" as="geometry" />
        </mxCell>
        <mxCell id="xzr1AYg_U-AbGogxpXCZ-48" value="Has points for word" style="rounded=1;whiteSpace=wrap;html=1;glass=0;strokeWidth=1;shadow=0;" parent="WIyWlLk6GJQsqaUBKTNV-1" vertex="1">
          <mxGeometry x="585" y="65" width="120" height="20" as="geometry" />
        </mxCell>
        <mxCell id="xzr1AYg_U-AbGogxpXCZ-49" value="&lt;div&gt;5 points&lt;/div&gt;" style="rounded=1;whiteSpace=wrap;html=1;glass=0;strokeWidth=1;shadow=0;fillColor=#f5f5f5;fontColor=#333333;strokeColor=#666666;" parent="WIyWlLk6GJQsqaUBKTNV-1" vertex="1">
          <mxGeometry x="705" y="65" width="40" height="30" as="geometry" />
        </mxCell>
        <mxCell id="xzr1AYg_U-AbGogxpXCZ-50" value="Show Select Word" style="rounded=1;whiteSpace=wrap;html=1;glass=0;strokeWidth=1;shadow=0;" parent="WIyWlLk6GJQsqaUBKTNV-1" vertex="1">
          <mxGeometry x="590" y="105" width="120" height="20" as="geometry" />
        </mxCell>
        <mxCell id="xzr1AYg_U-AbGogxpXCZ-51" style="edgeStyle=orthogonalEdgeStyle;rounded=0;orthogonalLoop=1;jettySize=auto;html=1;exitX=0.5;exitY=1;exitDx=0;exitDy=0;" parent="WIyWlLk6GJQsqaUBKTNV-1" source="xzr1AYg_U-AbGogxpXCZ-62" target="xzr1AYg_U-AbGogxpXCZ-54" edge="1">
          <mxGeometry relative="1" as="geometry" />
        </mxCell>
        <mxCell id="xzr1AYg_U-AbGogxpXCZ-52" value="Click Check" style="rounded=1;whiteSpace=wrap;html=1;glass=0;strokeWidth=1;shadow=0;" parent="WIyWlLk6GJQsqaUBKTNV-1" vertex="1">
          <mxGeometry x="585" y="525" width="120" height="20" as="geometry" />
        </mxCell>
        <mxCell id="xzr1AYg_U-AbGogxpXCZ-53" value="Select Word Count Points" style="text;strokeColor=none;fillColor=none;align=left;verticalAlign=middle;spacingLeft=4;spacingRight=4;overflow=hidden;points=[[0,0.5],[1,0.5]];portConstraint=eastwest;rotatable=0;whiteSpace=wrap;html=1;fontStyle=1" parent="WIyWlLk6GJQsqaUBKTNV-1" vertex="1">
          <mxGeometry x="570" y="415" width="180" height="30" as="geometry" />
        </mxCell>
        <mxCell id="xzr1AYg_U-AbGogxpXCZ-54" value="&lt;b&gt;If Correct&lt;/b&gt;&lt;div&gt;&lt;br/&gt;&lt;/div&gt;" style="rounded=0;whiteSpace=wrap;html=1;align=left;fontSize=10;fillColor=#eeeeee;strokeColor=#36393d;glass=1;" parent="WIyWlLk6GJQsqaUBKTNV-1" vertex="1">
          <mxGeometry x="618.1800000000001" y="575" width="53.63" height="30" as="geometry" />
        </mxCell>
        <mxCell id="xzr1AYg_U-AbGogxpXCZ-55" value="Increment +1" style="rounded=1;whiteSpace=wrap;html=1;glass=0;strokeWidth=1;shadow=0;" parent="WIyWlLk6GJQsqaUBKTNV-1" vertex="1">
          <mxGeometry x="675" y="615" width="80" height="20" as="geometry" />
        </mxCell>
        <mxCell id="xzr1AYg_U-AbGogxpXCZ-56" value="&lt;div&gt;10 points&lt;/div&gt;" style="rounded=1;whiteSpace=wrap;html=1;glass=0;strokeWidth=1;shadow=0;fillColor=#f5f5f5;fontColor=#333333;strokeColor=#666666;" parent="WIyWlLk6GJQsqaUBKTNV-1" vertex="1">
          <mxGeometry x="685" y="525" width="40" height="30" as="geometry" />
        </mxCell>
        <mxCell id="xzr1AYg_U-AbGogxpXCZ-57" value="&lt;div&gt;10 points&lt;/div&gt;" style="rounded=1;whiteSpace=wrap;html=1;glass=0;strokeWidth=1;shadow=0;fillColor=#d5e8d4;strokeColor=#82b366;" parent="WIyWlLk6GJQsqaUBKTNV-1" vertex="1">
          <mxGeometry x="755" y="615" width="40" height="30" as="geometry" />
        </mxCell>
        <mxCell id="xzr1AYg_U-AbGogxpXCZ-58" value="Dencrement -3" style="rounded=1;whiteSpace=wrap;html=1;glass=0;strokeWidth=1;shadow=0;" parent="WIyWlLk6GJQsqaUBKTNV-1" vertex="1">
          <mxGeometry x="505" y="615" width="90" height="20" as="geometry" />
        </mxCell>
        <mxCell id="xzr1AYg_U-AbGogxpXCZ-59" value="&lt;div&gt;7 points&lt;/div&gt;" style="rounded=1;whiteSpace=wrap;html=1;glass=0;strokeWidth=1;shadow=0;fillColor=#e1d5e7;strokeColor=#9673a6;" parent="WIyWlLk6GJQsqaUBKTNV-1" vertex="1">
          <mxGeometry x="595" y="615" width="40" height="30" as="geometry" />
        </mxCell>
        <mxCell id="xzr1AYg_U-AbGogxpXCZ-60" style="edgeStyle=orthogonalEdgeStyle;rounded=0;orthogonalLoop=1;jettySize=auto;html=1;curved=1;exitX=0;exitY=0.5;exitDx=0;exitDy=0;entryX=0.5;entryY=0;entryDx=0;entryDy=0;" parent="WIyWlLk6GJQsqaUBKTNV-1" source="xzr1AYg_U-AbGogxpXCZ-54" target="xzr1AYg_U-AbGogxpXCZ-58" edge="1">
          <mxGeometry relative="1" as="geometry">
            <mxPoint x="565" y="685" as="sourcePoint" />
            <mxPoint x="755" y="635" as="targetPoint" />
          </mxGeometry>
        </mxCell>
        <mxCell id="xzr1AYg_U-AbGogxpXCZ-61" style="edgeStyle=orthogonalEdgeStyle;rounded=0;orthogonalLoop=1;jettySize=auto;html=1;entryX=0.5;entryY=0;entryDx=0;entryDy=0;curved=1;exitX=1;exitY=0.5;exitDx=0;exitDy=0;" parent="WIyWlLk6GJQsqaUBKTNV-1" source="xzr1AYg_U-AbGogxpXCZ-54" target="xzr1AYg_U-AbGogxpXCZ-55" edge="1">
          <mxGeometry relative="1" as="geometry">
            <mxPoint x="565" y="685" as="sourcePoint" />
            <mxPoint x="755" y="635" as="targetPoint" />
          </mxGeometry>
        </mxCell>
        <mxCell id="xzr1AYg_U-AbGogxpXCZ-62" value="Has points for word" style="rounded=1;whiteSpace=wrap;html=1;glass=0;strokeWidth=1;shadow=0;" parent="WIyWlLk6GJQsqaUBKTNV-1" vertex="1">
          <mxGeometry x="580" y="455" width="120" height="20" as="geometry" />
        </mxCell>
        <mxCell id="xzr1AYg_U-AbGogxpXCZ-63" value="&lt;div&gt;10 points&lt;/div&gt;" style="rounded=1;whiteSpace=wrap;html=1;glass=0;strokeWidth=1;shadow=0;fillColor=#f5f5f5;fontColor=#333333;strokeColor=#666666;" parent="WIyWlLk6GJQsqaUBKTNV-1" vertex="1">
          <mxGeometry x="700" y="455" width="40" height="30" as="geometry" />
        </mxCell>
        <mxCell id="xzr1AYg_U-AbGogxpXCZ-64" value="Show Select Word" style="rounded=1;whiteSpace=wrap;html=1;glass=0;strokeWidth=1;shadow=0;" parent="WIyWlLk6GJQsqaUBKTNV-1" vertex="1">
          <mxGeometry x="585" y="495" width="120" height="20" as="geometry" />
        </mxCell>
        <mxCell id="xzr1AYg_U-AbGogxpXCZ-65" value="Game flow with Points" style="text;strokeColor=none;fillColor=none;align=left;verticalAlign=middle;spacingLeft=4;spacingRight=4;overflow=hidden;points=[[0,0.5],[1,0.5]];portConstraint=eastwest;rotatable=0;whiteSpace=wrap;html=1;fontStyle=1" parent="WIyWlLk6GJQsqaUBKTNV-1" vertex="1">
          <mxGeometry x="-743.1800000000001" y="20" width="150" height="30" as="geometry" />
        </mxCell>
        <mxCell id="xzr1AYg_U-AbGogxpXCZ-71" style="edgeStyle=orthogonalEdgeStyle;rounded=0;orthogonalLoop=1;jettySize=auto;html=1;curved=1;exitX=0.5;exitY=1;exitDx=0;exitDy=0;" parent="WIyWlLk6GJQsqaUBKTNV-1" source="xzr1AYg_U-AbGogxpXCZ-66" target="xzr1AYg_U-AbGogxpXCZ-70" edge="1">
          <mxGeometry relative="1" as="geometry" />
        </mxCell>
        <mxCell id="xzr1AYg_U-AbGogxpXCZ-66" value="Has points for &lt;b&gt;W&lt;/b&gt;&amp;nbsp;word" style="rounded=1;whiteSpace=wrap;html=1;glass=0;strokeWidth=1;shadow=0;" parent="WIyWlLk6GJQsqaUBKTNV-1" vertex="1">
          <mxGeometry x="-719.09" y="130" width="126.82" height="20" as="geometry" />
        </mxCell>
        <mxCell id="xzr1AYg_U-AbGogxpXCZ-67" value="&lt;div&gt;X points&lt;/div&gt;" style="rounded=1;whiteSpace=wrap;html=1;glass=0;strokeWidth=1;shadow=0;fillColor=#f5f5f5;fontColor=#333333;strokeColor=#666666;" parent="WIyWlLk6GJQsqaUBKTNV-1" vertex="1">
          <mxGeometry x="-592.2700000000001" y="130" width="40" height="30" as="geometry" />
        </mxCell>
        <mxCell id="xzr1AYg_U-AbGogxpXCZ-81" style="edgeStyle=orthogonalEdgeStyle;rounded=0;orthogonalLoop=1;jettySize=auto;html=1;entryX=0.5;entryY=0;entryDx=0;entryDy=0;" parent="WIyWlLk6GJQsqaUBKTNV-1" source="xzr1AYg_U-AbGogxpXCZ-69" target="xzr1AYg_U-AbGogxpXCZ-80" edge="1">
          <mxGeometry relative="1" as="geometry" />
        </mxCell>
        <mxCell id="xzr1AYg_U-AbGogxpXCZ-69" value="Show &lt;b&gt;Select&lt;/b&gt;&amp;nbsp;&lt;b&gt;W&amp;nbsp;&lt;/b&gt;Word" style="rounded=1;whiteSpace=wrap;html=1;glass=0;strokeWidth=1;shadow=0;" parent="WIyWlLk6GJQsqaUBKTNV-1" vertex="1">
          <mxGeometry x="-509.09" y="255" width="120" height="20" as="geometry" />
        </mxCell>
        <mxCell id="xzr1AYg_U-AbGogxpXCZ-70" value="&lt;b&gt;If X &amp;gt; 0&lt;/b&gt;&lt;div&gt;&lt;br&gt;&lt;/div&gt;" style="rounded=0;whiteSpace=wrap;html=1;align=left;fontSize=10;fillColor=#eeeeee;strokeColor=#36393d;glass=1;" parent="WIyWlLk6GJQsqaUBKTNV-1" vertex="1">
          <mxGeometry x="-562.2600000000001" y="205" width="53.63" height="30" as="geometry" />
        </mxCell>
        <mxCell id="xzr1AYg_U-AbGogxpXCZ-77" style="edgeStyle=orthogonalEdgeStyle;rounded=0;orthogonalLoop=1;jettySize=auto;html=1;entryX=0.5;entryY=0;entryDx=0;entryDy=0;curved=1;" parent="WIyWlLk6GJQsqaUBKTNV-1" source="xzr1AYg_U-AbGogxpXCZ-72" target="xzr1AYg_U-AbGogxpXCZ-75" edge="1">
          <mxGeometry relative="1" as="geometry" />
        </mxCell>
        <mxCell id="xzr1AYg_U-AbGogxpXCZ-72" value="Show &lt;b&gt;Demonstrate&lt;/b&gt;&amp;nbsp;&lt;b&gt;W&amp;nbsp;&lt;/b&gt;Word" style="rounded=1;whiteSpace=wrap;html=1;glass=0;strokeWidth=1;shadow=0;" parent="WIyWlLk6GJQsqaUBKTNV-1" vertex="1">
          <mxGeometry x="-712.27" y="255" width="170" height="20" as="geometry" />
        </mxCell>
        <mxCell id="xzr1AYg_U-AbGogxpXCZ-73" style="edgeStyle=orthogonalEdgeStyle;rounded=0;orthogonalLoop=1;jettySize=auto;html=1;curved=1;exitX=0;exitY=0.5;exitDx=0;exitDy=0;entryX=0.5;entryY=0;entryDx=0;entryDy=0;" parent="WIyWlLk6GJQsqaUBKTNV-1" source="xzr1AYg_U-AbGogxpXCZ-70" target="xzr1AYg_U-AbGogxpXCZ-72" edge="1">
          <mxGeometry relative="1" as="geometry">
            <mxPoint x="-554.2700000000001" y="300" as="sourcePoint" />
            <mxPoint x="-622.2700000000001" y="325" as="targetPoint" />
          </mxGeometry>
        </mxCell>
        <mxCell id="xzr1AYg_U-AbGogxpXCZ-74" style="edgeStyle=orthogonalEdgeStyle;rounded=0;orthogonalLoop=1;jettySize=auto;html=1;entryX=0.5;entryY=0;entryDx=0;entryDy=0;curved=1;exitX=1;exitY=0.5;exitDx=0;exitDy=0;" parent="WIyWlLk6GJQsqaUBKTNV-1" source="xzr1AYg_U-AbGogxpXCZ-70" target="xzr1AYg_U-AbGogxpXCZ-69" edge="1">
          <mxGeometry relative="1" as="geometry">
            <mxPoint x="-500.27000000000004" y="300" as="sourcePoint" />
            <mxPoint x="-457.27000000000004" y="325" as="targetPoint" />
          </mxGeometry>
        </mxCell>
        <mxCell id="xzr1AYg_U-AbGogxpXCZ-78" style="edgeStyle=orthogonalEdgeStyle;rounded=0;orthogonalLoop=1;jettySize=auto;html=1;entryX=0.5;entryY=0;entryDx=0;entryDy=0;" parent="WIyWlLk6GJQsqaUBKTNV-1" source="xzr1AYg_U-AbGogxpXCZ-75" target="xzr1AYg_U-AbGogxpXCZ-76" edge="1">
          <mxGeometry relative="1" as="geometry" />
        </mxCell>
        <mxCell id="xzr1AYg_U-AbGogxpXCZ-75" value="Click Check" style="rounded=1;whiteSpace=wrap;html=1;glass=0;strokeWidth=1;shadow=0;" parent="WIyWlLk6GJQsqaUBKTNV-1" vertex="1">
          <mxGeometry x="-687.27" y="305" width="120" height="20" as="geometry" />
        </mxCell>
        <mxCell id="xzr1AYg_U-AbGogxpXCZ-79" style="edgeStyle=orthogonalEdgeStyle;rounded=0;orthogonalLoop=1;jettySize=auto;html=1;entryX=0;entryY=0.5;entryDx=0;entryDy=0;curved=1;exitX=0;exitY=0.5;exitDx=0;exitDy=0;" parent="WIyWlLk6GJQsqaUBKTNV-1" source="xzr1AYg_U-AbGogxpXCZ-76" target="xzr1AYg_U-AbGogxpXCZ-66" edge="1">
          <mxGeometry relative="1" as="geometry" />
        </mxCell>
        <mxCell id="xzr1AYg_U-AbGogxpXCZ-76" value="Increment +1" style="rounded=1;whiteSpace=wrap;html=1;glass=0;strokeWidth=1;shadow=0;" parent="WIyWlLk6GJQsqaUBKTNV-1" vertex="1">
          <mxGeometry x="-667.27" y="355" width="80" height="20" as="geometry" />
        </mxCell>
        <mxCell id="xzr1AYg_U-AbGogxpXCZ-89" style="edgeStyle=orthogonalEdgeStyle;rounded=0;orthogonalLoop=1;jettySize=auto;html=1;curved=1;" parent="WIyWlLk6GJQsqaUBKTNV-1" source="xzr1AYg_U-AbGogxpXCZ-80" target="xzr1AYg_U-AbGogxpXCZ-82" edge="1">
          <mxGeometry relative="1" as="geometry" />
        </mxCell>
        <mxCell id="xzr1AYg_U-AbGogxpXCZ-80" value="Click Check" style="rounded=1;whiteSpace=wrap;html=1;glass=0;strokeWidth=1;shadow=0;" parent="WIyWlLk6GJQsqaUBKTNV-1" vertex="1">
          <mxGeometry x="-508.62999999999994" y="305" width="120" height="20" as="geometry" />
        </mxCell>
        <mxCell id="xzr1AYg_U-AbGogxpXCZ-82" value="&lt;b&gt;If Correct&lt;/b&gt;&lt;div&gt;&lt;br/&gt;&lt;/div&gt;" style="rounded=0;whiteSpace=wrap;html=1;align=left;fontSize=10;fillColor=#eeeeee;strokeColor=#36393d;glass=1;" parent="WIyWlLk6GJQsqaUBKTNV-1" vertex="1">
          <mxGeometry x="-459.09" y="355" width="53.63" height="30" as="geometry" />
        </mxCell>
        <mxCell id="xzr1AYg_U-AbGogxpXCZ-83" value="Increment +1" style="rounded=1;whiteSpace=wrap;html=1;glass=0;strokeWidth=1;shadow=0;" parent="WIyWlLk6GJQsqaUBKTNV-1" vertex="1">
          <mxGeometry x="-402.2699999999998" y="395" width="80" height="20" as="geometry" />
        </mxCell>
        <mxCell id="xzr1AYg_U-AbGogxpXCZ-96" style="edgeStyle=orthogonalEdgeStyle;rounded=0;orthogonalLoop=1;jettySize=auto;html=1;entryX=0.5;entryY=0;entryDx=0;entryDy=0;" parent="WIyWlLk6GJQsqaUBKTNV-1" source="xzr1AYg_U-AbGogxpXCZ-85" target="xzr1AYg_U-AbGogxpXCZ-95" edge="1">
          <mxGeometry relative="1" as="geometry" />
        </mxCell>
        <mxCell id="xzr1AYg_U-AbGogxpXCZ-85" value="Dencrement -2" style="rounded=1;whiteSpace=wrap;html=1;glass=0;strokeWidth=1;shadow=0;" parent="WIyWlLk6GJQsqaUBKTNV-1" vertex="1">
          <mxGeometry x="-572.2699999999999" y="395" width="90" height="20" as="geometry" />
        </mxCell>
        <mxCell id="xzr1AYg_U-AbGogxpXCZ-87" style="edgeStyle=orthogonalEdgeStyle;rounded=0;orthogonalLoop=1;jettySize=auto;html=1;curved=1;exitX=0;exitY=0.5;exitDx=0;exitDy=0;entryX=0.5;entryY=0;entryDx=0;entryDy=0;" parent="WIyWlLk6GJQsqaUBKTNV-1" source="xzr1AYg_U-AbGogxpXCZ-82" target="xzr1AYg_U-AbGogxpXCZ-85" edge="1">
          <mxGeometry relative="1" as="geometry">
            <mxPoint x="-512.2699999999999" y="465" as="sourcePoint" />
            <mxPoint x="-322.2699999999998" y="415" as="targetPoint" />
          </mxGeometry>
        </mxCell>
        <mxCell id="xzr1AYg_U-AbGogxpXCZ-88" style="edgeStyle=orthogonalEdgeStyle;rounded=0;orthogonalLoop=1;jettySize=auto;html=1;entryX=0.5;entryY=0;entryDx=0;entryDy=0;curved=1;exitX=1;exitY=0.5;exitDx=0;exitDy=0;" parent="WIyWlLk6GJQsqaUBKTNV-1" source="xzr1AYg_U-AbGogxpXCZ-82" target="xzr1AYg_U-AbGogxpXCZ-83" edge="1">
          <mxGeometry relative="1" as="geometry">
            <mxPoint x="-512.2699999999999" y="465" as="sourcePoint" />
            <mxPoint x="-322.2699999999998" y="415" as="targetPoint" />
          </mxGeometry>
        </mxCell>
        <mxCell id="xzr1AYg_U-AbGogxpXCZ-90" value="&lt;div&gt;Queue&lt;/div&gt;" style="rounded=1;whiteSpace=wrap;html=1;glass=0;strokeWidth=1;shadow=0;fillColor=#d5e8d4;strokeColor=#82b366;" parent="WIyWlLk6GJQsqaUBKTNV-1" vertex="1">
          <mxGeometry x="-820" y="10" width="48.41" height="20" as="geometry" />
        </mxCell>
        <mxCell id="xzr1AYg_U-AbGogxpXCZ-91" value="&lt;div&gt;A&lt;/div&gt;" style="rounded=1;whiteSpace=wrap;html=1;glass=0;strokeWidth=1;shadow=0;fillColor=#dae8fc;strokeColor=#6c8ebf;" parent="WIyWlLk6GJQsqaUBKTNV-1" vertex="1">
          <mxGeometry x="-820" y="30" width="48.41" height="20" as="geometry" />
        </mxCell>
        <mxCell id="xzr1AYg_U-AbGogxpXCZ-92" value="&lt;div&gt;B&lt;/div&gt;" style="rounded=1;whiteSpace=wrap;html=1;glass=0;strokeWidth=1;shadow=0;fillColor=#dae8fc;strokeColor=#6c8ebf;" parent="WIyWlLk6GJQsqaUBKTNV-1" vertex="1">
          <mxGeometry x="-820" y="50" width="48.41" height="20" as="geometry" />
        </mxCell>
        <mxCell id="xzr1AYg_U-AbGogxpXCZ-93" value="&lt;div&gt;C&lt;/div&gt;" style="rounded=1;whiteSpace=wrap;html=1;glass=0;strokeWidth=1;shadow=0;fillColor=#dae8fc;strokeColor=#6c8ebf;" parent="WIyWlLk6GJQsqaUBKTNV-1" vertex="1">
          <mxGeometry x="-820" y="70" width="48.41" height="20" as="geometry" />
        </mxCell>
        <mxCell id="xzr1AYg_U-AbGogxpXCZ-94" value="&lt;b&gt;Try Pop W&lt;/b&gt; from Queue" style="rounded=1;whiteSpace=wrap;html=1;glass=0;strokeWidth=1;shadow=0;fillColor=#d5e8d4;strokeColor=#82b366;" parent="WIyWlLk6GJQsqaUBKTNV-1" vertex="1">
          <mxGeometry x="-729.09" y="50" width="141.82" height="20" as="geometry" />
        </mxCell>
        <mxCell id="xzr1AYg_U-AbGogxpXCZ-95" value="&lt;b&gt;Push A into&lt;/b&gt; Queue" style="rounded=1;whiteSpace=wrap;html=1;glass=0;strokeWidth=1;shadow=0;fillColor=#d5e8d4;strokeColor=#82b366;" parent="WIyWlLk6GJQsqaUBKTNV-1" vertex="1">
          <mxGeometry x="-587.2700000000001" y="440" width="120" height="20" as="geometry" />
        </mxCell>
        <mxCell id="xzr1AYg_U-AbGogxpXCZ-98" value="" style="edgeStyle=orthogonalEdgeStyle;rounded=0;orthogonalLoop=1;jettySize=auto;html=1;curved=1;" parent="WIyWlLk6GJQsqaUBKTNV-1" source="xzr1AYg_U-AbGogxpXCZ-97" target="xzr1AYg_U-AbGogxpXCZ-66" edge="1">
          <mxGeometry relative="1" as="geometry" />
        </mxCell>
        <mxCell id="xzr1AYg_U-AbGogxpXCZ-100" style="edgeStyle=orthogonalEdgeStyle;rounded=0;orthogonalLoop=1;jettySize=auto;html=1;entryX=0.5;entryY=0;entryDx=0;entryDy=0;curved=1;" parent="WIyWlLk6GJQsqaUBKTNV-1" source="xzr1AYg_U-AbGogxpXCZ-97" target="xzr1AYg_U-AbGogxpXCZ-125" edge="1">
          <mxGeometry relative="1" as="geometry">
            <mxPoint x="-352.50000000000006" y="30" as="targetPoint" />
          </mxGeometry>
        </mxCell>
        <mxCell id="xzr1AYg_U-AbGogxpXCZ-97" value="&lt;b&gt;If !Success&lt;/b&gt;&lt;div&gt;&lt;br&gt;&lt;/div&gt;" style="rounded=0;whiteSpace=wrap;html=1;align=left;fontSize=10;fillColor=#f8cecc;strokeColor=#b85450;glass=1;" parent="WIyWlLk6GJQsqaUBKTNV-1" vertex="1">
          <mxGeometry x="-687.38" y="70" width="63.4" height="30" as="geometry" />
        </mxCell>
        <mxCell id="xzr1AYg_U-AbGogxpXCZ-102" style="edgeStyle=orthogonalEdgeStyle;rounded=0;orthogonalLoop=1;jettySize=auto;html=1;entryX=0.5;entryY=0;entryDx=0;entryDy=0;" parent="WIyWlLk6GJQsqaUBKTNV-1" source="xzr1AYg_U-AbGogxpXCZ-99" target="xzr1AYg_U-AbGogxpXCZ-109" edge="1">
          <mxGeometry relative="1" as="geometry" />
        </mxCell>
        <mxCell id="xzr1AYg_U-AbGogxpXCZ-99" value="Make &lt;b&gt;Match&lt;/b&gt; words" style="rounded=1;whiteSpace=wrap;html=1;glass=0;strokeWidth=1;shadow=0;" parent="WIyWlLk6GJQsqaUBKTNV-1" vertex="1">
          <mxGeometry x="-222.4000000000001" y="161.65" width="126.82" height="20" as="geometry" />
        </mxCell>
        <mxCell id="xzr1AYg_U-AbGogxpXCZ-108" style="edgeStyle=orthogonalEdgeStyle;rounded=0;orthogonalLoop=1;jettySize=auto;html=1;entryX=0.5;entryY=0;entryDx=0;entryDy=0;" parent="WIyWlLk6GJQsqaUBKTNV-1" source="xzr1AYg_U-AbGogxpXCZ-101" target="xzr1AYg_U-AbGogxpXCZ-103" edge="1">
          <mxGeometry relative="1" as="geometry" />
        </mxCell>
        <mxCell id="xzr1AYg_U-AbGogxpXCZ-101" value="Click matches" style="rounded=1;whiteSpace=wrap;html=1;glass=0;strokeWidth=1;shadow=0;" parent="WIyWlLk6GJQsqaUBKTNV-1" vertex="1">
          <mxGeometry x="-75.57999999999998" y="221.65" width="120" height="20" as="geometry" />
        </mxCell>
        <mxCell id="xzr1AYg_U-AbGogxpXCZ-103" value="&lt;b&gt;If Correct&lt;/b&gt;&lt;div&gt;&lt;br/&gt;&lt;/div&gt;" style="rounded=0;whiteSpace=wrap;html=1;align=left;fontSize=10;fillColor=#eeeeee;strokeColor=#36393d;glass=1;" parent="WIyWlLk6GJQsqaUBKTNV-1" vertex="1">
          <mxGeometry x="-42.39999999999998" y="261.65" width="53.63" height="30" as="geometry" />
        </mxCell>
        <mxCell id="xzr1AYg_U-AbGogxpXCZ-130" style="edgeStyle=orthogonalEdgeStyle;rounded=0;orthogonalLoop=1;jettySize=auto;html=1;entryX=0.5;entryY=0;entryDx=0;entryDy=0;curved=1;exitX=0.5;exitY=1;exitDx=0;exitDy=0;" parent="WIyWlLk6GJQsqaUBKTNV-1" source="xzr1AYg_U-AbGogxpXCZ-105" target="xzr1AYg_U-AbGogxpXCZ-114" edge="1">
          <mxGeometry relative="1" as="geometry" />
        </mxCell>
        <mxCell id="xzr1AYg_U-AbGogxpXCZ-105" value="Dencrement -2" style="rounded=1;whiteSpace=wrap;html=1;glass=0;strokeWidth=1;shadow=0;" parent="WIyWlLk6GJQsqaUBKTNV-1" vertex="1">
          <mxGeometry x="-108.98999999999984" y="306.65" width="90" height="20" as="geometry" />
        </mxCell>
        <mxCell id="xzr1AYg_U-AbGogxpXCZ-106" style="edgeStyle=orthogonalEdgeStyle;rounded=0;orthogonalLoop=1;jettySize=auto;html=1;curved=1;exitX=0;exitY=0.5;exitDx=0;exitDy=0;entryX=0.5;entryY=0;entryDx=0;entryDy=0;" parent="WIyWlLk6GJQsqaUBKTNV-1" source="xzr1AYg_U-AbGogxpXCZ-103" target="xzr1AYg_U-AbGogxpXCZ-105" edge="1">
          <mxGeometry relative="1" as="geometry">
            <mxPoint x="-98.98999999999984" y="371.65" as="sourcePoint" />
            <mxPoint x="91.01000000000018" y="321.65" as="targetPoint" />
          </mxGeometry>
        </mxCell>
        <mxCell id="xzr1AYg_U-AbGogxpXCZ-107" style="edgeStyle=orthogonalEdgeStyle;rounded=0;orthogonalLoop=1;jettySize=auto;html=1;entryX=0.5;entryY=0;entryDx=0;entryDy=0;curved=1;exitX=1;exitY=0.5;exitDx=0;exitDy=0;" parent="WIyWlLk6GJQsqaUBKTNV-1" source="xzr1AYg_U-AbGogxpXCZ-103" target="xzr1AYg_U-AbGogxpXCZ-114" edge="1">
          <mxGeometry relative="1" as="geometry">
            <mxPoint x="-98.98999999999984" y="371.65" as="sourcePoint" />
            <mxPoint x="-108.98999999999978" y="366.65" as="targetPoint" />
          </mxGeometry>
        </mxCell>
        <mxCell id="xzr1AYg_U-AbGogxpXCZ-110" style="edgeStyle=orthogonalEdgeStyle;rounded=0;orthogonalLoop=1;jettySize=auto;html=1;" parent="WIyWlLk6GJQsqaUBKTNV-1" source="xzr1AYg_U-AbGogxpXCZ-109" target="xzr1AYg_U-AbGogxpXCZ-101" edge="1">
          <mxGeometry relative="1" as="geometry" />
        </mxCell>
        <mxCell id="xzr1AYg_U-AbGogxpXCZ-112" style="edgeStyle=orthogonalEdgeStyle;rounded=0;orthogonalLoop=1;jettySize=auto;html=1;entryX=0.5;entryY=0;entryDx=0;entryDy=0;curved=1;" parent="WIyWlLk6GJQsqaUBKTNV-1" source="xzr1AYg_U-AbGogxpXCZ-109" target="xzr1AYg_U-AbGogxpXCZ-111" edge="1">
          <mxGeometry relative="1" as="geometry" />
        </mxCell>
        <mxCell id="xzr1AYg_U-AbGogxpXCZ-109" value="&lt;b&gt;If has matches&lt;/b&gt;" style="rounded=0;whiteSpace=wrap;html=1;align=left;fontSize=10;fillColor=#eeeeee;strokeColor=#36393d;glass=1;" parent="WIyWlLk6GJQsqaUBKTNV-1" vertex="1">
          <mxGeometry x="-198.99000000000004" y="216.65" width="80" height="30" as="geometry" />
        </mxCell>
        <mxCell id="xzr1AYg_U-AbGogxpXCZ-111" value="&lt;div style=&quot;line-height: 18px;&quot;&gt;Exit (to Result)&lt;/div&gt;" style="rounded=1;whiteSpace=wrap;html=1;fontSize=12;glass=0;strokeWidth=1;shadow=0;fillColor=#ffcc99;strokeColor=#36393d;" parent="WIyWlLk6GJQsqaUBKTNV-1" vertex="1">
          <mxGeometry x="-359.9999999999998" y="254.99999999999997" width="120" height="20" as="geometry" />
        </mxCell>
        <mxCell id="xzr1AYg_U-AbGogxpXCZ-114" value="" style="ellipse;whiteSpace=wrap;html=1;aspect=fixed;" parent="WIyWlLk6GJQsqaUBKTNV-1" vertex="1">
          <mxGeometry x="-2.1799999999999926" y="373.35999999999996" width="13.41" height="13.41" as="geometry" />
        </mxCell>
        <mxCell id="xzr1AYg_U-AbGogxpXCZ-115" style="edgeStyle=orthogonalEdgeStyle;rounded=0;orthogonalLoop=1;jettySize=auto;html=1;entryX=0.5;entryY=1;entryDx=0;entryDy=0;curved=1;exitX=1;exitY=0.5;exitDx=0;exitDy=0;" parent="WIyWlLk6GJQsqaUBKTNV-1" source="xzr1AYg_U-AbGogxpXCZ-114" target="xzr1AYg_U-AbGogxpXCZ-116" edge="1">
          <mxGeometry relative="1" as="geometry">
            <mxPoint x="-118.99000000000001" y="491.65" as="sourcePoint" />
            <mxPoint x="71.01" y="441.65" as="targetPoint" />
          </mxGeometry>
        </mxCell>
        <mxCell id="xzr1AYg_U-AbGogxpXCZ-116" value="" style="ellipse;whiteSpace=wrap;html=1;aspect=fixed;" parent="WIyWlLk6GJQsqaUBKTNV-1" vertex="1">
          <mxGeometry x="70" y="214.99999999999994" width="13.41" height="13.41" as="geometry" />
        </mxCell>
        <mxCell id="xzr1AYg_U-AbGogxpXCZ-118" style="edgeStyle=orthogonalEdgeStyle;rounded=0;orthogonalLoop=1;jettySize=auto;html=1;entryX=0.5;entryY=0;entryDx=0;entryDy=0;curved=1;exitX=0.5;exitY=0;exitDx=0;exitDy=0;" parent="WIyWlLk6GJQsqaUBKTNV-1" source="xzr1AYg_U-AbGogxpXCZ-116" target="xzr1AYg_U-AbGogxpXCZ-109" edge="1">
          <mxGeometry relative="1" as="geometry">
            <mxPoint x="-16.260000000000005" y="250.06" as="sourcePoint" />
            <mxPoint x="-164.67000000000013" y="216.65" as="targetPoint" />
          </mxGeometry>
        </mxCell>
        <mxCell id="xzr1AYg_U-AbGogxpXCZ-119" style="edgeStyle=orthogonalEdgeStyle;rounded=0;orthogonalLoop=1;jettySize=auto;html=1;entryX=0.5;entryY=0;entryDx=0;entryDy=0;curved=1;exitX=0.5;exitY=1;exitDx=0;exitDy=0;" parent="WIyWlLk6GJQsqaUBKTNV-1" source="xzr1AYg_U-AbGogxpXCZ-95" target="xzr1AYg_U-AbGogxpXCZ-120" edge="1">
          <mxGeometry relative="1" as="geometry">
            <mxPoint x="-465.33" y="415" as="sourcePoint" />
            <mxPoint x="-585.3299999999998" y="505" as="targetPoint" />
          </mxGeometry>
        </mxCell>
        <mxCell id="xzr1AYg_U-AbGogxpXCZ-120" value="" style="ellipse;whiteSpace=wrap;html=1;aspect=fixed;" parent="WIyWlLk6GJQsqaUBKTNV-1" vertex="1">
          <mxGeometry x="-445.33" y="498.29999999999995" width="13.41" height="13.41" as="geometry" />
        </mxCell>
        <mxCell id="xzr1AYg_U-AbGogxpXCZ-121" style="edgeStyle=orthogonalEdgeStyle;rounded=0;orthogonalLoop=1;jettySize=auto;html=1;entryX=0.5;entryY=0;entryDx=0;entryDy=0;curved=1;exitX=0.5;exitY=1;exitDx=0;exitDy=0;" parent="WIyWlLk6GJQsqaUBKTNV-1" source="xzr1AYg_U-AbGogxpXCZ-83" target="xzr1AYg_U-AbGogxpXCZ-120" edge="1">
          <mxGeometry relative="1" as="geometry">
            <mxPoint x="-375.65" y="428.71" as="sourcePoint" />
            <mxPoint x="-349.40999999999997" y="511.71" as="targetPoint" />
          </mxGeometry>
        </mxCell>
        <mxCell id="xzr1AYg_U-AbGogxpXCZ-122" style="edgeStyle=orthogonalEdgeStyle;rounded=0;orthogonalLoop=1;jettySize=auto;html=1;curved=1;exitX=0;exitY=0.5;exitDx=0;exitDy=0;entryX=1;entryY=0.5;entryDx=0;entryDy=0;" parent="WIyWlLk6GJQsqaUBKTNV-1" source="xzr1AYg_U-AbGogxpXCZ-120" target="xzr1AYg_U-AbGogxpXCZ-123" edge="1">
          <mxGeometry relative="1" as="geometry">
            <mxPoint x="-499.09" y="360" as="sourcePoint" />
            <mxPoint x="-759.09" y="370" as="targetPoint" />
          </mxGeometry>
        </mxCell>
        <mxCell id="xzr1AYg_U-AbGogxpXCZ-123" value="" style="ellipse;whiteSpace=wrap;html=1;aspect=fixed;" parent="WIyWlLk6GJQsqaUBKTNV-1" vertex="1">
          <mxGeometry x="-771.59" y="498.2999999999999" width="13.41" height="13.41" as="geometry" />
        </mxCell>
        <mxCell id="xzr1AYg_U-AbGogxpXCZ-124" style="edgeStyle=orthogonalEdgeStyle;rounded=0;orthogonalLoop=1;jettySize=auto;html=1;entryX=0;entryY=0.5;entryDx=0;entryDy=0;curved=1;exitX=0.5;exitY=0;exitDx=0;exitDy=0;" parent="WIyWlLk6GJQsqaUBKTNV-1" source="xzr1AYg_U-AbGogxpXCZ-123" target="xzr1AYg_U-AbGogxpXCZ-94" edge="1">
          <mxGeometry relative="1" as="geometry">
            <mxPoint x="-749.09" y="310" as="sourcePoint" />
            <mxPoint x="-559.09" y="260" as="targetPoint" />
          </mxGeometry>
        </mxCell>
        <mxCell id="xzr1AYg_U-AbGogxpXCZ-129" style="edgeStyle=orthogonalEdgeStyle;rounded=0;orthogonalLoop=1;jettySize=auto;html=1;entryX=0.5;entryY=0;entryDx=0;entryDy=0;curved=1;exitX=0;exitY=0.5;exitDx=0;exitDy=0;" parent="WIyWlLk6GJQsqaUBKTNV-1" source="xzr1AYg_U-AbGogxpXCZ-125" target="xzr1AYg_U-AbGogxpXCZ-111" edge="1">
          <mxGeometry relative="1" as="geometry" />
        </mxCell>
        <mxCell id="xzr1AYg_U-AbGogxpXCZ-125" value="&lt;b&gt;If need Match Game&lt;/b&gt;" style="rounded=0;whiteSpace=wrap;html=1;align=left;fontSize=10;fillColor=#eeeeee;strokeColor=#36393d;glass=1;" parent="WIyWlLk6GJQsqaUBKTNV-1" vertex="1">
          <mxGeometry x="-280" y="105" width="105.33" height="30" as="geometry" />
        </mxCell>
        <mxCell id="xzr1AYg_U-AbGogxpXCZ-126" style="edgeStyle=orthogonalEdgeStyle;rounded=0;orthogonalLoop=1;jettySize=auto;html=1;entryX=0.5;entryY=0;entryDx=0;entryDy=0;curved=1;exitX=1;exitY=0.5;exitDx=0;exitDy=0;" parent="WIyWlLk6GJQsqaUBKTNV-1" source="xzr1AYg_U-AbGogxpXCZ-125" target="xzr1AYg_U-AbGogxpXCZ-99" edge="1">
          <mxGeometry relative="1" as="geometry">
            <mxPoint x="-400" y="370" as="sourcePoint" />
            <mxPoint x="-210" y="320" as="targetPoint" />
          </mxGeometry>
        </mxCell>
        <mxCell id="xzr1AYg_U-AbGogxpXCZ-132" value="Push Quest back to Queue" style="rounded=1;whiteSpace=wrap;html=1;glass=0;strokeWidth=1;shadow=0;fillColor=#f8cecc;strokeColor=#b85450;" parent="WIyWlLk6GJQsqaUBKTNV-1" vertex="1">
          <mxGeometry x="108.75" y="285" width="147.5" height="20" as="geometry" />
        </mxCell>
        <mxCell id="xzr1AYg_U-AbGogxpXCZ-133" value="Push Quest back to Queue" style="rounded=1;whiteSpace=wrap;html=1;glass=0;strokeWidth=1;shadow=0;fillColor=#f8cecc;strokeColor=#b85450;" parent="WIyWlLk6GJQsqaUBKTNV-1" vertex="1">
          <mxGeometry x="98.18" y="660" width="147.5" height="20" as="geometry" />
        </mxCell>
        <mxCell id="xzr1AYg_U-AbGogxpXCZ-134" value="Push Quest back to Queue" style="rounded=1;whiteSpace=wrap;html=1;glass=0;strokeWidth=1;shadow=0;fillColor=#f8cecc;strokeColor=#b85450;" parent="WIyWlLk6GJQsqaUBKTNV-1" vertex="1">
          <mxGeometry x="487.5" y="660" width="147.5" height="20" as="geometry" />
        </mxCell>
        <mxCell id="xzr1AYg_U-AbGogxpXCZ-135" value="Push Quest back to Queue" style="rounded=1;whiteSpace=wrap;html=1;glass=0;strokeWidth=1;shadow=0;fillColor=#f8cecc;strokeColor=#b85450;" parent="WIyWlLk6GJQsqaUBKTNV-1" vertex="1">
          <mxGeometry x="481.25" y="275" width="147.5" height="20" as="geometry" />
        </mxCell>
        <mxCell id="xzr1AYg_U-AbGogxpXCZ-138" value="Select word based on Mark" style="text;strokeColor=none;fillColor=none;align=left;verticalAlign=middle;spacingLeft=4;spacingRight=4;overflow=hidden;points=[[0,0.5],[1,0.5]];portConstraint=eastwest;rotatable=0;whiteSpace=wrap;html=1;fontStyle=1" parent="WIyWlLk6GJQsqaUBKTNV-1" vertex="1">
          <mxGeometry x="-771.59" y="605" width="240" height="30" as="geometry" />
        </mxCell>
        <mxCell id="xzr1AYg_U-AbGogxpXCZ-140" value="&lt;b&gt;If X == 0&lt;/b&gt;&lt;div&gt;&lt;br&gt;&lt;/div&gt;" style="rounded=0;whiteSpace=wrap;html=1;align=left;fontSize=10;fillColor=#eeeeee;strokeColor=#36393d;glass=1;" parent="WIyWlLk6GJQsqaUBKTNV-1" vertex="1">
          <mxGeometry x="-771.5900000000001" y="665" width="53.63" height="30" as="geometry" />
        </mxCell>
        <mxCell id="xzr1AYg_U-AbGogxpXCZ-143" value="Demonstration" style="rounded=0;whiteSpace=wrap;html=1;align=left;fontSize=10;fillColor=#dae8fc;strokeColor=#6c8ebf;" parent="WIyWlLk6GJQsqaUBKTNV-1" vertex="1">
          <mxGeometry x="-601.3600000000001" y="650" width="80" height="20" as="geometry" />
        </mxCell>
        <mxCell id="xzr1AYg_U-AbGogxpXCZ-144" value="&lt;b&gt;Thai&lt;/b&gt; word with &lt;b&gt;Phonetic&lt;/b&gt;." style="rounded=0;whiteSpace=wrap;html=1;align=left;fontSize=10;" parent="WIyWlLk6GJQsqaUBKTNV-1" vertex="1">
          <mxGeometry x="-712.2700000000001" y="670" width="139.09" height="30" as="geometry" />
        </mxCell>
        <mxCell id="xzr1AYg_U-AbGogxpXCZ-145" value="words in &lt;b&gt;English&lt;/b&gt;" style="rounded=0;whiteSpace=wrap;html=1;align=left;fontSize=10;" parent="WIyWlLk6GJQsqaUBKTNV-1" vertex="1">
          <mxGeometry x="-712.2700000000001" y="697.5" width="139.09" height="15" as="geometry" />
        </mxCell>
        <mxCell id="xzr1AYg_U-AbGogxpXCZ-146" value="&lt;h3&gt;ช้าง&lt;span&gt;&lt;br&gt;&lt;div&gt;&lt;i style=&quot;background-color: transparent; color: light-dark(rgb(0, 0, 0), rgb(255, 255, 255)); font-weight: normal;&quot;&gt;cháng&lt;/i&gt;&lt;/div&gt;&lt;/span&gt;&lt;/h3&gt;&lt;p&gt;&lt;/p&gt;" style="rounded=0;whiteSpace=wrap;html=1;glass=0;strokeWidth=1;shadow=0;fillColor=#d5e8d4;strokeColor=#82b366;align=center;verticalAlign=middle;fontFamily=Helvetica;fontSize=8;" parent="WIyWlLk6GJQsqaUBKTNV-1" vertex="1">
          <mxGeometry x="-551.36" y="760" width="120" height="30" as="geometry" />
        </mxCell>
        <mxCell id="xzr1AYg_U-AbGogxpXCZ-147" value="&lt;div&gt;Elephant&lt;/div&gt;" style="rounded=1;whiteSpace=wrap;html=1;glass=0;strokeWidth=1;shadow=0;" parent="WIyWlLk6GJQsqaUBKTNV-1" vertex="1">
          <mxGeometry x="-551.36" y="790" width="60" height="20" as="geometry" />
        </mxCell>
        <mxCell id="xzr1AYg_U-AbGogxpXCZ-148" value="&lt;div&gt;Dog&lt;/div&gt;" style="rounded=1;whiteSpace=wrap;html=1;glass=0;strokeWidth=1;shadow=0;" parent="WIyWlLk6GJQsqaUBKTNV-1" vertex="1">
          <mxGeometry x="-551.36" y="810" width="60" height="20" as="geometry" />
        </mxCell>
        <mxCell id="xzr1AYg_U-AbGogxpXCZ-149" value="&lt;div&gt;Cat&lt;/div&gt;" style="rounded=1;whiteSpace=wrap;html=1;glass=0;strokeWidth=1;shadow=0;" parent="WIyWlLk6GJQsqaUBKTNV-1" vertex="1">
          <mxGeometry x="-491.36000000000007" y="790" width="60" height="20" as="geometry" />
        </mxCell>
        <mxCell id="xzr1AYg_U-AbGogxpXCZ-150" value="&lt;div&gt;Pig&lt;/div&gt;" style="rounded=1;whiteSpace=wrap;html=1;glass=0;strokeWidth=1;shadow=0;" parent="WIyWlLk6GJQsqaUBKTNV-1" vertex="1">
          <mxGeometry x="-491.36000000000007" y="810" width="60" height="20" as="geometry" />
        </mxCell>
        <mxCell id="xzr1AYg_U-AbGogxpXCZ-151" value="&lt;h3&gt;ช้าง&lt;span&gt;&lt;br&gt;&lt;div&gt;&lt;i style=&quot;background-color: transparent; color: light-dark(rgb(0, 0, 0), rgb(255, 255, 255)); font-weight: normal;&quot;&gt;cháng&lt;/i&gt;&lt;/div&gt;&lt;/span&gt;&lt;/h3&gt;&lt;p&gt;&lt;/p&gt;" style="rounded=0;whiteSpace=wrap;html=1;glass=0;strokeWidth=1;shadow=0;fillColor=#d5e8d4;strokeColor=#82b366;align=center;verticalAlign=middle;fontFamily=Helvetica;fontSize=8;" parent="WIyWlLk6GJQsqaUBKTNV-1" vertex="1">
          <mxGeometry x="-551.36" y="670" width="120" height="30" as="geometry" />
        </mxCell>
        <mxCell id="xzr1AYg_U-AbGogxpXCZ-152" value="&lt;div&gt;Elephant&lt;/div&gt;" style="rounded=1;whiteSpace=wrap;html=1;glass=0;strokeWidth=1;shadow=0;" parent="WIyWlLk6GJQsqaUBKTNV-1" vertex="1">
          <mxGeometry x="-521.36" y="700" width="60" height="20" as="geometry" />
        </mxCell>
        <mxCell id="xzr1AYg_U-AbGogxpXCZ-156" value="&lt;b&gt;If X == 1-2&lt;/b&gt;&lt;div&gt;&lt;br&gt;&lt;/div&gt;" style="rounded=0;whiteSpace=wrap;html=1;align=left;fontSize=10;fillColor=#eeeeee;strokeColor=#36393d;glass=1;" parent="WIyWlLk6GJQsqaUBKTNV-1" vertex="1">
          <mxGeometry x="-771.5900000000001" y="755" width="53.63" height="30" as="geometry" />
        </mxCell>
        <mxCell id="xzr1AYg_U-AbGogxpXCZ-157" value="Select word" style="rounded=0;whiteSpace=wrap;html=1;align=left;fontSize=10;" parent="WIyWlLk6GJQsqaUBKTNV-1" vertex="1">
          <mxGeometry x="-598.5000000000001" y="740" width="80" height="20" as="geometry" />
        </mxCell>
        <mxCell id="xzr1AYg_U-AbGogxpXCZ-158" value="&lt;b&gt;Thai&lt;/b&gt; word with&amp;nbsp;&lt;b&gt;Phonetic&lt;/b&gt;." style="rounded=0;whiteSpace=wrap;html=1;align=left;fontSize=10;" parent="WIyWlLk6GJQsqaUBKTNV-1" vertex="1">
          <mxGeometry x="-712.2700000000001" y="760" width="139.09" height="30" as="geometry" />
        </mxCell>
        <mxCell id="xzr1AYg_U-AbGogxpXCZ-159" value="words in &lt;b&gt;English&lt;/b&gt;" style="rounded=0;whiteSpace=wrap;html=1;align=left;fontSize=10;" parent="WIyWlLk6GJQsqaUBKTNV-1" vertex="1">
          <mxGeometry x="-712.2700000000001" y="790" width="139.09" height="42.5" as="geometry" />
        </mxCell>
        <mxCell id="xzr1AYg_U-AbGogxpXCZ-160" value="&lt;h3&gt;Elephant&lt;/h3&gt;&lt;p&gt;&lt;/p&gt;" style="rounded=0;whiteSpace=wrap;html=1;glass=0;strokeWidth=1;shadow=0;fillColor=#d5e8d4;strokeColor=#82b366;align=center;verticalAlign=middle;fontFamily=Helvetica;fontSize=8;" parent="WIyWlLk6GJQsqaUBKTNV-1" vertex="1">
          <mxGeometry x="-551.36" y="870" width="120" height="30" as="geometry" />
        </mxCell>
        <mxCell id="xzr1AYg_U-AbGogxpXCZ-161" value="&lt;h3&gt;&lt;span style=&quot;font-weight: normal;&quot;&gt;ช้าง&lt;br&gt;&lt;/span&gt;&lt;div&gt;&lt;i style=&quot;background-color: transparent; color: light-dark(rgb(0, 0, 0), rgb(255, 255, 255)); font-weight: normal;&quot;&gt;cháng&lt;/i&gt;&lt;/div&gt;&lt;/h3&gt;" style="rounded=1;whiteSpace=wrap;html=1;glass=0;strokeWidth=1;shadow=0;fontSize=6;fontStyle=0" parent="WIyWlLk6GJQsqaUBKTNV-1" vertex="1">
          <mxGeometry x="-551.36" y="900" width="60" height="20" as="geometry" />
        </mxCell>
        <mxCell id="xzr1AYg_U-AbGogxpXCZ-162" value="&lt;p style=&quot;margin: 0px; font-variant-numeric: normal; font-variant-east-asian: normal; font-variant-alternates: normal; font-size-adjust: none; font-kerning: auto; font-optical-sizing: auto; font-feature-settings: normal; font-variation-settings: normal; font-variant-position: normal; font-variant-emoji: normal; font-stretch: normal; line-height: normal; font-family: &amp;quot;Helvetica Neue&amp;quot;; text-align: start;&quot; class=&quot;p1&quot;&gt;หมา&lt;/p&gt;&lt;p style=&quot;margin: 0px; font-variant-numeric: normal; font-variant-east-asian: normal; font-variant-alternates: normal; font-size-adjust: none; font-kerning: auto; font-optical-sizing: auto; font-feature-settings: normal; font-variation-settings: normal; font-variant-position: normal; font-variant-emoji: normal; font-stretch: normal; line-height: normal; font-family: &amp;quot;Helvetica Neue&amp;quot;; text-align: start;&quot; class=&quot;p1&quot;&gt;măa&lt;/p&gt;" style="rounded=1;whiteSpace=wrap;html=1;glass=0;strokeWidth=1;shadow=0;fontSize=8;fontStyle=0" parent="WIyWlLk6GJQsqaUBKTNV-1" vertex="1">
          <mxGeometry x="-551.36" y="920" width="60" height="20" as="geometry" />
        </mxCell>
        <mxCell id="xzr1AYg_U-AbGogxpXCZ-163" value="&lt;p style=&quot;margin: 0px; font-variant-numeric: normal; font-variant-east-asian: normal; font-variant-alternates: normal; font-size-adjust: none; font-kerning: auto; font-optical-sizing: auto; font-feature-settings: normal; font-variation-settings: normal; font-variant-position: normal; font-variant-emoji: normal; font-stretch: normal; line-height: normal; font-family: &amp;quot;Helvetica Neue&amp;quot;; text-align: start;&quot; class=&quot;p1&quot;&gt;แมว&lt;br&gt;maeo&lt;/p&gt;" style="rounded=1;whiteSpace=wrap;html=1;glass=0;strokeWidth=1;shadow=0;strokeColor=default;align=center;verticalAlign=middle;fontFamily=Helvetica;fontSize=8;fontColor=default;fillColor=default;" parent="WIyWlLk6GJQsqaUBKTNV-1" vertex="1">
          <mxGeometry x="-491.36000000000007" y="900" width="60" height="20" as="geometry" />
        </mxCell>
        <mxCell id="xzr1AYg_U-AbGogxpXCZ-164" value="&lt;p style=&quot;margin: 0px; font-variant-numeric: normal; font-variant-east-asian: normal; font-variant-alternates: normal; font-size-adjust: none; font-kerning: auto; font-optical-sizing: auto; font-feature-settings: normal; font-variation-settings: normal; font-variant-position: normal; font-variant-emoji: normal; font-stretch: normal; line-height: normal; font-family: &amp;quot;Helvetica Neue&amp;quot;; text-align: start;&quot; class=&quot;p1&quot;&gt;หมู &lt;br&gt;mŭ&lt;span style=&quot;background-color: transparent; color: light-dark(rgb(0, 0, 0), rgb(255, 255, 255));&quot;&gt;u&lt;/span&gt;&lt;/p&gt;" style="rounded=1;whiteSpace=wrap;html=1;glass=0;strokeWidth=1;shadow=0;fontSize=8;" parent="WIyWlLk6GJQsqaUBKTNV-1" vertex="1">
          <mxGeometry x="-491.36000000000007" y="920" width="60" height="20" as="geometry" />
        </mxCell>
        <mxCell id="xzr1AYg_U-AbGogxpXCZ-165" value="&lt;b&gt;If X == 3-4&lt;/b&gt;&lt;div&gt;&lt;br&gt;&lt;/div&gt;" style="rounded=0;whiteSpace=wrap;html=1;align=left;fontSize=10;fillColor=#eeeeee;strokeColor=#36393d;glass=1;" parent="WIyWlLk6GJQsqaUBKTNV-1" vertex="1">
          <mxGeometry x="-771.5900000000001" y="865" width="53.63" height="30" as="geometry" />
        </mxCell>
        <mxCell id="xzr1AYg_U-AbGogxpXCZ-166" value="Select word" style="rounded=0;whiteSpace=wrap;html=1;align=left;fontSize=10;" parent="WIyWlLk6GJQsqaUBKTNV-1" vertex="1">
          <mxGeometry x="-601.3600000000001" y="850" width="80" height="20" as="geometry" />
        </mxCell>
        <mxCell id="xzr1AYg_U-AbGogxpXCZ-167" value="&lt;b&gt;Eng&lt;/b&gt;&amp;nbsp;word" style="rounded=0;whiteSpace=wrap;html=1;align=left;fontSize=10;" parent="WIyWlLk6GJQsqaUBKTNV-1" vertex="1">
          <mxGeometry x="-712.2700000000001" y="870" width="139.09" height="30" as="geometry" />
        </mxCell>
        <mxCell id="xzr1AYg_U-AbGogxpXCZ-168" value="words in &lt;b&gt;Thai&lt;/b&gt; with&amp;nbsp;&lt;b&gt;Phonetic&lt;/b&gt;" style="rounded=0;whiteSpace=wrap;html=1;align=left;fontSize=10;" parent="WIyWlLk6GJQsqaUBKTNV-1" vertex="1">
          <mxGeometry x="-712.2700000000001" y="900" width="139.09" height="40" as="geometry" />
        </mxCell>
        <mxCell id="xzr1AYg_U-AbGogxpXCZ-169" value="&lt;b&gt;If X == 5-6&lt;/b&gt;&lt;div&gt;&lt;br&gt;&lt;/div&gt;" style="rounded=0;whiteSpace=wrap;html=1;align=left;fontSize=10;fillColor=#eeeeee;strokeColor=#36393d;glass=1;" parent="WIyWlLk6GJQsqaUBKTNV-1" vertex="1">
          <mxGeometry x="-771.5900000000001" y="975" width="53.63" height="30" as="geometry" />
        </mxCell>
        <mxCell id="xzr1AYg_U-AbGogxpXCZ-170" value="&lt;h3&gt;ช้าง or Elephant&lt;br&gt;&lt;div&gt;&lt;i style=&quot;background-color: transparent; color: light-dark(rgb(0, 0, 0), rgb(255, 255, 255)); font-weight: normal;&quot;&gt;cháng&amp;nbsp; &amp;nbsp; &amp;nbsp; &amp;nbsp; &amp;nbsp; &amp;nbsp; &amp;nbsp; &amp;nbsp; &amp;nbsp; &amp;nbsp; &amp;nbsp;&amp;nbsp;&lt;/i&gt;&lt;/div&gt;&lt;/h3&gt;&lt;p&gt;&lt;/p&gt;" style="rounded=0;whiteSpace=wrap;html=1;glass=0;strokeWidth=1;shadow=0;fillColor=#d5e8d4;strokeColor=#82b366;align=center;verticalAlign=middle;fontFamily=Helvetica;fontSize=8;fontColor=default;" parent="WIyWlLk6GJQsqaUBKTNV-1" vertex="1">
          <mxGeometry x="-551.36" y="980" width="120" height="30" as="geometry" />
        </mxCell>
        <mxCell id="xzr1AYg_U-AbGogxpXCZ-175" value="Select word" style="rounded=0;whiteSpace=wrap;html=1;align=left;fontSize=10;" parent="WIyWlLk6GJQsqaUBKTNV-1" vertex="1">
          <mxGeometry x="-601.3600000000001" y="960" width="80" height="20" as="geometry" />
        </mxCell>
        <mxCell id="xzr1AYg_U-AbGogxpXCZ-176" value="&lt;b&gt;Rangom Thai or Eng&lt;/b&gt;" style="rounded=0;whiteSpace=wrap;html=1;align=left;fontSize=10;" parent="WIyWlLk6GJQsqaUBKTNV-1" vertex="1">
          <mxGeometry x="-712.2700000000001" y="980" width="139.09" height="30" as="geometry" />
        </mxCell>
        <mxCell id="xzr1AYg_U-AbGogxpXCZ-177" value="&lt;b&gt;If&lt;/b&gt; words in &lt;b&gt;Thai&lt;/b&gt; with&amp;nbsp;&lt;b&gt;Phonetic&lt;/b&gt;" style="rounded=0;whiteSpace=wrap;html=1;align=left;fontSize=10;" parent="WIyWlLk6GJQsqaUBKTNV-1" vertex="1">
          <mxGeometry x="-712.2700000000001" y="1010" width="139.09" height="40" as="geometry" />
        </mxCell>
        <mxCell id="xzr1AYg_U-AbGogxpXCZ-179" value="&lt;b&gt;If X == 7-10&lt;/b&gt;&lt;div&gt;&lt;br&gt;&lt;/div&gt;" style="rounded=0;whiteSpace=wrap;html=1;align=left;fontSize=10;fillColor=#eeeeee;strokeColor=#36393d;glass=1;" parent="WIyWlLk6GJQsqaUBKTNV-1" vertex="1">
          <mxGeometry x="-771.59" y="1085" width="61.59" height="30" as="geometry" />
        </mxCell>
        <mxCell id="xzr1AYg_U-AbGogxpXCZ-180" value="&lt;h3&gt;&lt;span style=&quot;white-space: pre;&quot;&gt;&#x9;&lt;/span&gt;ช้าง or Elephant&lt;i style=&quot;background-color: transparent; color: light-dark(rgb(0, 0, 0), rgb(255, 255, 255)); font-size: 8px; font-weight: normal;&quot;&gt;&amp;nbsp; &amp;nbsp; &amp;nbsp; &amp;nbsp; &amp;nbsp;&lt;/i&gt;&lt;/h3&gt;&lt;p&gt;&lt;/p&gt;" style="rounded=0;whiteSpace=wrap;html=1;glass=0;strokeWidth=1;shadow=0;fillColor=#d5e8d4;strokeColor=#82b366;align=center;verticalAlign=middle;fontFamily=Helvetica;fontSize=8;" parent="WIyWlLk6GJQsqaUBKTNV-1" vertex="1">
          <mxGeometry x="-551.36" y="1090" width="120" height="30" as="geometry" />
        </mxCell>
        <mxCell id="xzr1AYg_U-AbGogxpXCZ-181" value="&lt;h3&gt;&lt;span style=&quot;font-weight: normal;&quot;&gt;ช้าง or Elephant&lt;/span&gt;&lt;/h3&gt;" style="rounded=1;whiteSpace=wrap;html=1;glass=0;strokeWidth=1;shadow=0;fontSize=6;" parent="WIyWlLk6GJQsqaUBKTNV-1" vertex="1">
          <mxGeometry x="-551.36" y="1120" width="60" height="20" as="geometry" />
        </mxCell>
        <mxCell id="xzr1AYg_U-AbGogxpXCZ-182" value="&lt;p style=&quot;margin: 0px; font-variant-numeric: normal; font-variant-east-asian: normal; font-variant-alternates: normal; font-size-adjust: none; font-kerning: auto; font-optical-sizing: auto; font-feature-settings: normal; font-variation-settings: normal; font-variant-position: normal; font-variant-emoji: normal; font-stretch: normal; line-height: normal; font-family: &amp;quot;Helvetica Neue&amp;quot;; text-align: start;&quot; class=&quot;p1&quot;&gt;หมา or Dog&lt;/p&gt;" style="rounded=1;whiteSpace=wrap;html=1;glass=0;strokeWidth=1;shadow=0;fontSize=8;" parent="WIyWlLk6GJQsqaUBKTNV-1" vertex="1">
          <mxGeometry x="-551.36" y="1140" width="60" height="20" as="geometry" />
        </mxCell>
        <mxCell id="xzr1AYg_U-AbGogxpXCZ-183" value="&lt;p style=&quot;margin: 0px; font-variant-numeric: normal; font-variant-east-asian: normal; font-variant-alternates: normal; font-size-adjust: none; font-kerning: auto; font-optical-sizing: auto; font-feature-settings: normal; font-variation-settings: normal; font-variant-position: normal; font-variant-emoji: normal; font-stretch: normal; line-height: normal; font-family: &amp;quot;Helvetica Neue&amp;quot;; text-align: start;&quot; class=&quot;p1&quot;&gt;แมว or Cat&lt;br&gt;&lt;/p&gt;" style="rounded=1;whiteSpace=wrap;html=1;glass=0;strokeWidth=1;shadow=0;strokeColor=default;align=center;verticalAlign=middle;fontFamily=Helvetica;fontSize=8;fontColor=default;fillColor=default;" parent="WIyWlLk6GJQsqaUBKTNV-1" vertex="1">
          <mxGeometry x="-491.36000000000007" y="1120" width="60" height="20" as="geometry" />
        </mxCell>
        <mxCell id="xzr1AYg_U-AbGogxpXCZ-184" value="&lt;p style=&quot;margin: 0px; font-variant-numeric: normal; font-variant-east-asian: normal; font-variant-alternates: normal; font-size-adjust: none; font-kerning: auto; font-optical-sizing: auto; font-feature-settings: normal; font-variation-settings: normal; font-variant-position: normal; font-variant-emoji: normal; font-stretch: normal; line-height: normal; font-family: &amp;quot;Helvetica Neue&amp;quot;; text-align: start;&quot; class=&quot;p1&quot;&gt;หมู or Pig&lt;br&gt;&lt;/p&gt;" style="rounded=1;whiteSpace=wrap;html=1;glass=0;strokeWidth=1;shadow=0;fontSize=8;" parent="WIyWlLk6GJQsqaUBKTNV-1" vertex="1">
          <mxGeometry x="-491.36000000000007" y="1140" width="60" height="20" as="geometry" />
        </mxCell>
        <mxCell id="xzr1AYg_U-AbGogxpXCZ-185" value="Select word" style="rounded=0;whiteSpace=wrap;html=1;align=left;fontSize=10;" parent="WIyWlLk6GJQsqaUBKTNV-1" vertex="1">
          <mxGeometry x="-601.3600000000001" y="1070" width="80" height="20" as="geometry" />
        </mxCell>
        <mxCell id="xzr1AYg_U-AbGogxpXCZ-186" value="&lt;b&gt;Rangom Thai or Eng&lt;/b&gt;" style="rounded=0;whiteSpace=wrap;html=1;align=left;fontSize=10;" parent="WIyWlLk6GJQsqaUBKTNV-1" vertex="1">
          <mxGeometry x="-712.2700000000001" y="1090" width="139.09" height="30" as="geometry" />
        </mxCell>
        <mxCell id="xzr1AYg_U-AbGogxpXCZ-187" value="&lt;b&gt;If&lt;/b&gt; words in &lt;b&gt;Thai&lt;/b&gt; &lt;b&gt;NO&lt;/b&gt;&amp;nbsp;&lt;b&gt;Phonetic&lt;/b&gt;" style="rounded=0;whiteSpace=wrap;html=1;align=left;fontSize=10;" parent="WIyWlLk6GJQsqaUBKTNV-1" vertex="1">
          <mxGeometry x="-712.2700000000001" y="1120" width="139.09" height="40" as="geometry" />
        </mxCell>
        <mxCell id="xzr1AYg_U-AbGogxpXCZ-188" value="&lt;h3&gt;&lt;span style=&quot;font-weight: normal;&quot;&gt;ช้าง&lt;span style=&quot;&quot;&gt; or Elephant&lt;/span&gt;&lt;br&gt;&lt;/span&gt;&lt;div&gt;&lt;i style=&quot;background-color: transparent; color: light-dark(rgb(0, 0, 0), rgb(255, 255, 255)); font-weight: normal;&quot;&gt;cháng&amp;nbsp; &amp;nbsp; &amp;nbsp; &amp;nbsp; &amp;nbsp; &amp;nbsp; &amp;nbsp; &amp;nbsp; &amp;nbsp;&lt;/i&gt;&lt;/div&gt;&lt;/h3&gt;" style="rounded=1;whiteSpace=wrap;html=1;glass=0;strokeWidth=1;shadow=0;fontSize=6;fontStyle=0" parent="WIyWlLk6GJQsqaUBKTNV-1" vertex="1">
          <mxGeometry x="-551.36" y="1010" width="60" height="20" as="geometry" />
        </mxCell>
        <mxCell id="xzr1AYg_U-AbGogxpXCZ-189" value="&lt;p style=&quot;margin: 0px; font-variant-numeric: normal; font-variant-east-asian: normal; font-variant-alternates: normal; font-size-adjust: none; font-kerning: auto; font-optical-sizing: auto; font-feature-settings: normal; font-variation-settings: normal; font-variant-position: normal; font-variant-emoji: normal; font-stretch: normal; line-height: normal; font-family: &amp;quot;Helvetica Neue&amp;quot;; text-align: start;&quot; class=&quot;p1&quot;&gt;แมว or Cat&lt;br&gt;maeo&lt;/p&gt;" style="rounded=1;whiteSpace=wrap;html=1;glass=0;strokeWidth=1;shadow=0;strokeColor=default;align=center;verticalAlign=middle;fontFamily=Helvetica;fontSize=8;fontColor=default;fillColor=default;" parent="WIyWlLk6GJQsqaUBKTNV-1" vertex="1">
          <mxGeometry x="-491.36000000000007" y="1010" width="60" height="20" as="geometry" />
        </mxCell>
        <mxCell id="xzr1AYg_U-AbGogxpXCZ-190" value="&lt;p style=&quot;margin: 0px; font-variant-numeric: normal; font-variant-east-asian: normal; font-variant-alternates: normal; font-size-adjust: none; font-kerning: auto; font-optical-sizing: auto; font-feature-settings: normal; font-variation-settings: normal; font-variant-position: normal; font-variant-emoji: normal; font-stretch: normal; line-height: normal; font-family: &amp;quot;Helvetica Neue&amp;quot;; text-align: start;&quot; class=&quot;p1&quot;&gt;หมู or Pig&lt;br&gt;mŭ&lt;span style=&quot;background-color: transparent; color: light-dark(rgb(0, 0, 0), rgb(255, 255, 255));&quot;&gt;u&lt;/span&gt;&lt;/p&gt;" style="rounded=1;whiteSpace=wrap;html=1;glass=0;strokeWidth=1;shadow=0;fontSize=8;" parent="WIyWlLk6GJQsqaUBKTNV-1" vertex="1">
          <mxGeometry x="-491.36000000000007" y="1030" width="60" height="20" as="geometry" />
        </mxCell>
        <mxCell id="xzr1AYg_U-AbGogxpXCZ-191" value="&lt;p style=&quot;margin: 0px; font-variant-numeric: normal; font-variant-east-asian: normal; font-variant-alternates: normal; font-size-adjust: none; font-kerning: auto; font-optical-sizing: auto; font-feature-settings: normal; font-variation-settings: normal; font-variant-position: normal; font-variant-emoji: normal; font-stretch: normal; line-height: normal; font-family: &amp;quot;Helvetica Neue&amp;quot;; text-align: start;&quot; class=&quot;p1&quot;&gt;หมา or Dog&lt;/p&gt;&lt;p style=&quot;margin: 0px; font-variant-numeric: normal; font-variant-east-asian: normal; font-variant-alternates: normal; font-size-adjust: none; font-kerning: auto; font-optical-sizing: auto; font-feature-settings: normal; font-variation-settings: normal; font-variant-position: normal; font-variant-emoji: normal; font-stretch: normal; line-height: normal; font-family: &amp;quot;Helvetica Neue&amp;quot;; text-align: start;&quot; class=&quot;p1&quot;&gt;măa&lt;/p&gt;" style="rounded=1;whiteSpace=wrap;html=1;glass=0;strokeWidth=1;shadow=0;fontSize=8;" parent="WIyWlLk6GJQsqaUBKTNV-1" vertex="1">
          <mxGeometry x="-551.36" y="1030" width="60" height="20" as="geometry" />
        </mxCell>
        <mxCell id="xzr1AYg_U-AbGogxpXCZ-192" value="Same Logic applies to Match words presentation" style="text;strokeColor=none;fillColor=none;align=left;verticalAlign=middle;spacingLeft=4;spacingRight=4;overflow=hidden;points=[[0,0.5],[1,0.5]];portConstraint=eastwest;rotatable=0;whiteSpace=wrap;html=1;fontStyle=1" parent="WIyWlLk6GJQsqaUBKTNV-1" vertex="1">
          <mxGeometry x="-572.27" y="605" width="240" height="30" as="geometry" />
        </mxCell>
        <mxCell id="xzr1AYg_U-AbGogxpXCZ-221" style="edgeStyle=orthogonalEdgeStyle;rounded=0;orthogonalLoop=1;jettySize=auto;html=1;entryX=0.5;entryY=0;entryDx=0;entryDy=0;curved=1;startArrow=classic;startFill=1;" parent="WIyWlLk6GJQsqaUBKTNV-1" source="xzr1AYg_U-AbGogxpXCZ-193" target="xzr1AYg_U-AbGogxpXCZ-195" edge="1">
          <mxGeometry relative="1" as="geometry" />
        </mxCell>
        <mxCell id="xzr1AYg_U-AbGogxpXCZ-193" value="&lt;h3&gt;&lt;span style=&quot;font-weight: normal;&quot;&gt;ช้าง&lt;br&gt;&lt;/span&gt;&lt;div&gt;&lt;i style=&quot;background-color: transparent; color: light-dark(rgb(0, 0, 0), rgb(255, 255, 255)); font-weight: normal;&quot;&gt;cháng&lt;/i&gt;&lt;/div&gt;&lt;/h3&gt;" style="rounded=1;whiteSpace=wrap;html=1;glass=0;strokeWidth=1;shadow=0;fontSize=6;fontStyle=0" parent="WIyWlLk6GJQsqaUBKTNV-1" vertex="1">
          <mxGeometry x="-342.27" y="760" width="60" height="20" as="geometry" />
        </mxCell>
        <mxCell id="xzr1AYg_U-AbGogxpXCZ-194" value="&lt;p style=&quot;margin: 0px; font-variant-numeric: normal; font-variant-east-asian: normal; font-variant-alternates: normal; font-size-adjust: none; font-kerning: auto; font-optical-sizing: auto; font-feature-settings: normal; font-variation-settings: normal; font-variant-position: normal; font-variant-emoji: normal; font-stretch: normal; line-height: normal; font-family: &amp;quot;Helvetica Neue&amp;quot;; text-align: start;&quot; class=&quot;p1&quot;&gt;หมา&lt;/p&gt;&lt;p style=&quot;margin: 0px; font-variant-numeric: normal; font-variant-east-asian: normal; font-variant-alternates: normal; font-size-adjust: none; font-kerning: auto; font-optical-sizing: auto; font-feature-settings: normal; font-variation-settings: normal; font-variant-position: normal; font-variant-emoji: normal; font-stretch: normal; line-height: normal; font-family: &amp;quot;Helvetica Neue&amp;quot;; text-align: start;&quot; class=&quot;p1&quot;&gt;măa&lt;/p&gt;" style="rounded=1;whiteSpace=wrap;html=1;glass=0;strokeWidth=1;shadow=0;fontSize=8;fontStyle=0" parent="WIyWlLk6GJQsqaUBKTNV-1" vertex="1">
          <mxGeometry x="-342.27" y="800" width="60" height="20" as="geometry" />
        </mxCell>
        <mxCell id="xzr1AYg_U-AbGogxpXCZ-195" value="&lt;p style=&quot;margin: 0px; font-variant-numeric: normal; font-variant-east-asian: normal; font-variant-alternates: normal; font-size-adjust: none; font-kerning: auto; font-optical-sizing: auto; font-feature-settings: normal; font-variation-settings: normal; font-variant-position: normal; font-variant-emoji: normal; font-stretch: normal; line-height: normal; font-family: &amp;quot;Helvetica Neue&amp;quot;; text-align: start;&quot; class=&quot;p1&quot;&gt;Elephant&lt;/p&gt;" style="rounded=1;whiteSpace=wrap;html=1;glass=0;strokeWidth=1;shadow=0;strokeColor=default;align=center;verticalAlign=middle;fontFamily=Helvetica;fontSize=8;fontColor=default;fillColor=default;" parent="WIyWlLk6GJQsqaUBKTNV-1" vertex="1">
          <mxGeometry x="-282.27000000000004" y="760" width="60" height="20" as="geometry" />
        </mxCell>
        <mxCell id="xzr1AYg_U-AbGogxpXCZ-196" value="Dog" style="rounded=1;whiteSpace=wrap;html=1;glass=0;strokeWidth=1;shadow=0;fontSize=8;" parent="WIyWlLk6GJQsqaUBKTNV-1" vertex="1">
          <mxGeometry x="-282.27000000000004" y="800" width="60" height="20" as="geometry" />
        </mxCell>
        <mxCell id="xzr1AYg_U-AbGogxpXCZ-197" value="Match word" style="rounded=0;whiteSpace=wrap;html=1;align=left;fontSize=10;" parent="WIyWlLk6GJQsqaUBKTNV-1" vertex="1">
          <mxGeometry x="-402.2700000000001" y="740" width="80" height="20" as="geometry" />
        </mxCell>
        <mxCell id="xzr1AYg_U-AbGogxpXCZ-198" value="&lt;p style=&quot;margin: 0px; font-variant-numeric: normal; font-variant-east-asian: normal; font-variant-alternates: normal; font-size-adjust: none; font-kerning: auto; font-optical-sizing: auto; font-feature-settings: normal; font-variation-settings: normal; font-variant-position: normal; font-variant-emoji: normal; font-stretch: normal; line-height: normal; font-family: &amp;quot;Helvetica Neue&amp;quot;; text-align: start;&quot; class=&quot;p1&quot;&gt;แมว&lt;br&gt;maeo&lt;/p&gt;" style="rounded=1;whiteSpace=wrap;html=1;glass=0;strokeWidth=1;shadow=0;strokeColor=default;align=center;verticalAlign=middle;fontFamily=Helvetica;fontSize=8;fontColor=default;fillColor=default;" parent="WIyWlLk6GJQsqaUBKTNV-1" vertex="1">
          <mxGeometry x="-342.27000000000004" y="780" width="60" height="20" as="geometry" />
        </mxCell>
        <mxCell id="xzr1AYg_U-AbGogxpXCZ-199" value="&lt;p style=&quot;margin: 0px; font-variant-numeric: normal; font-variant-east-asian: normal; font-variant-alternates: normal; font-size-adjust: none; font-kerning: auto; font-optical-sizing: auto; font-feature-settings: normal; font-variation-settings: normal; font-variant-position: normal; font-variant-emoji: normal; font-stretch: normal; line-height: normal; font-family: &amp;quot;Helvetica Neue&amp;quot;; text-align: start;&quot; class=&quot;p1&quot;&gt;Cat&lt;/p&gt;" style="rounded=1;whiteSpace=wrap;html=1;glass=0;strokeWidth=1;shadow=0;strokeColor=default;align=center;verticalAlign=middle;fontFamily=Helvetica;fontSize=8;fontColor=default;fillColor=default;" parent="WIyWlLk6GJQsqaUBKTNV-1" vertex="1">
          <mxGeometry x="-282.27000000000004" y="780" width="60" height="20" as="geometry" />
        </mxCell>
        <mxCell id="xzr1AYg_U-AbGogxpXCZ-200" value="&lt;h3&gt;&lt;span style=&quot;font-weight: normal;&quot;&gt;ช้าง&lt;br&gt;&lt;/span&gt;&lt;div&gt;&lt;i style=&quot;background-color: transparent; color: light-dark(rgb(0, 0, 0), rgb(255, 255, 255)); font-weight: normal;&quot;&gt;cháng&lt;/i&gt;&lt;/div&gt;&lt;/h3&gt;" style="rounded=1;whiteSpace=wrap;html=1;glass=0;strokeWidth=1;shadow=0;fontSize=6;fontStyle=0" parent="WIyWlLk6GJQsqaUBKTNV-1" vertex="1">
          <mxGeometry x="-340" y="870" width="60" height="20" as="geometry" />
        </mxCell>
        <mxCell id="xzr1AYg_U-AbGogxpXCZ-201" value="&lt;p style=&quot;margin: 0px; font-variant-numeric: normal; font-variant-east-asian: normal; font-variant-alternates: normal; font-size-adjust: none; font-kerning: auto; font-optical-sizing: auto; font-feature-settings: normal; font-variation-settings: normal; font-variant-position: normal; font-variant-emoji: normal; font-stretch: normal; line-height: normal; font-family: &amp;quot;Helvetica Neue&amp;quot;; text-align: start;&quot; class=&quot;p1&quot;&gt;หมา&lt;/p&gt;&lt;p style=&quot;margin: 0px; font-variant-numeric: normal; font-variant-east-asian: normal; font-variant-alternates: normal; font-size-adjust: none; font-kerning: auto; font-optical-sizing: auto; font-feature-settings: normal; font-variation-settings: normal; font-variant-position: normal; font-variant-emoji: normal; font-stretch: normal; line-height: normal; font-family: &amp;quot;Helvetica Neue&amp;quot;; text-align: start;&quot; class=&quot;p1&quot;&gt;măa&lt;/p&gt;" style="rounded=1;whiteSpace=wrap;html=1;glass=0;strokeWidth=1;shadow=0;fontSize=8;fontStyle=0" parent="WIyWlLk6GJQsqaUBKTNV-1" vertex="1">
          <mxGeometry x="-340" y="910" width="60" height="20" as="geometry" />
        </mxCell>
        <mxCell id="xzr1AYg_U-AbGogxpXCZ-202" value="&lt;p style=&quot;margin: 0px; font-variant-numeric: normal; font-variant-east-asian: normal; font-variant-alternates: normal; font-size-adjust: none; font-kerning: auto; font-optical-sizing: auto; font-feature-settings: normal; font-variation-settings: normal; font-variant-position: normal; font-variant-emoji: normal; font-stretch: normal; line-height: normal; font-family: &amp;quot;Helvetica Neue&amp;quot;; text-align: start;&quot; class=&quot;p1&quot;&gt;Elephant&lt;/p&gt;" style="rounded=1;whiteSpace=wrap;html=1;glass=0;strokeWidth=1;shadow=0;strokeColor=default;align=center;verticalAlign=middle;fontFamily=Helvetica;fontSize=8;fontColor=default;fillColor=default;" parent="WIyWlLk6GJQsqaUBKTNV-1" vertex="1">
          <mxGeometry x="-280" y="870" width="60" height="20" as="geometry" />
        </mxCell>
        <mxCell id="xzr1AYg_U-AbGogxpXCZ-203" value="Dog" style="rounded=1;whiteSpace=wrap;html=1;glass=0;strokeWidth=1;shadow=0;fontSize=8;" parent="WIyWlLk6GJQsqaUBKTNV-1" vertex="1">
          <mxGeometry x="-280" y="910" width="60" height="20" as="geometry" />
        </mxCell>
        <mxCell id="xzr1AYg_U-AbGogxpXCZ-204" value="Match word" style="rounded=0;whiteSpace=wrap;html=1;align=left;fontSize=10;" parent="WIyWlLk6GJQsqaUBKTNV-1" vertex="1">
          <mxGeometry x="-400.0000000000001" y="850" width="80" height="20" as="geometry" />
        </mxCell>
        <mxCell id="xzr1AYg_U-AbGogxpXCZ-205" value="&lt;p style=&quot;margin: 0px; font-variant-numeric: normal; font-variant-east-asian: normal; font-variant-alternates: normal; font-size-adjust: none; font-kerning: auto; font-optical-sizing: auto; font-feature-settings: normal; font-variation-settings: normal; font-variant-position: normal; font-variant-emoji: normal; font-stretch: normal; line-height: normal; font-family: &amp;quot;Helvetica Neue&amp;quot;; text-align: start;&quot; class=&quot;p1&quot;&gt;แมว&lt;br&gt;maeo&lt;/p&gt;" style="rounded=1;whiteSpace=wrap;html=1;glass=0;strokeWidth=1;shadow=0;strokeColor=default;align=center;verticalAlign=middle;fontFamily=Helvetica;fontSize=8;fontColor=default;fillColor=default;" parent="WIyWlLk6GJQsqaUBKTNV-1" vertex="1">
          <mxGeometry x="-340.00000000000006" y="890" width="60" height="20" as="geometry" />
        </mxCell>
        <mxCell id="xzr1AYg_U-AbGogxpXCZ-206" value="&lt;p style=&quot;margin: 0px; font-variant-numeric: normal; font-variant-east-asian: normal; font-variant-alternates: normal; font-size-adjust: none; font-kerning: auto; font-optical-sizing: auto; font-feature-settings: normal; font-variation-settings: normal; font-variant-position: normal; font-variant-emoji: normal; font-stretch: normal; line-height: normal; font-family: &amp;quot;Helvetica Neue&amp;quot;; text-align: start;&quot; class=&quot;p1&quot;&gt;Cat&lt;/p&gt;" style="rounded=1;whiteSpace=wrap;html=1;glass=0;strokeWidth=1;shadow=0;strokeColor=default;align=center;verticalAlign=middle;fontFamily=Helvetica;fontSize=8;fontColor=default;fillColor=default;" parent="WIyWlLk6GJQsqaUBKTNV-1" vertex="1">
          <mxGeometry x="-280.00000000000006" y="890" width="60" height="20" as="geometry" />
        </mxCell>
        <mxCell id="xzr1AYg_U-AbGogxpXCZ-207" value="&lt;h3&gt;&lt;span style=&quot;font-weight: normal;&quot;&gt;ช้าง&lt;br&gt;&lt;/span&gt;&lt;div&gt;&lt;i style=&quot;background-color: transparent; color: light-dark(rgb(0, 0, 0), rgb(255, 255, 255)); font-weight: normal;&quot;&gt;cháng&lt;/i&gt;&lt;/div&gt;&lt;/h3&gt;" style="rounded=1;whiteSpace=wrap;html=1;glass=0;strokeWidth=1;shadow=0;fontSize=6;fontStyle=0" parent="WIyWlLk6GJQsqaUBKTNV-1" vertex="1">
          <mxGeometry x="-340" y="980" width="60" height="20" as="geometry" />
        </mxCell>
        <mxCell id="xzr1AYg_U-AbGogxpXCZ-208" value="&lt;p style=&quot;margin: 0px; font-variant-numeric: normal; font-variant-east-asian: normal; font-variant-alternates: normal; font-size-adjust: none; font-kerning: auto; font-optical-sizing: auto; font-feature-settings: normal; font-variation-settings: normal; font-variant-position: normal; font-variant-emoji: normal; font-stretch: normal; line-height: normal; font-family: &amp;quot;Helvetica Neue&amp;quot;; text-align: start;&quot; class=&quot;p1&quot;&gt;หมา&lt;/p&gt;&lt;p style=&quot;margin: 0px; font-variant-numeric: normal; font-variant-east-asian: normal; font-variant-alternates: normal; font-size-adjust: none; font-kerning: auto; font-optical-sizing: auto; font-feature-settings: normal; font-variation-settings: normal; font-variant-position: normal; font-variant-emoji: normal; font-stretch: normal; line-height: normal; font-family: &amp;quot;Helvetica Neue&amp;quot;; text-align: start;&quot; class=&quot;p1&quot;&gt;măa&lt;/p&gt;" style="rounded=1;whiteSpace=wrap;html=1;glass=0;strokeWidth=1;shadow=0;fontSize=8;fontStyle=0" parent="WIyWlLk6GJQsqaUBKTNV-1" vertex="1">
          <mxGeometry x="-340" y="1020" width="60" height="20" as="geometry" />
        </mxCell>
        <mxCell id="xzr1AYg_U-AbGogxpXCZ-209" value="&lt;p style=&quot;margin: 0px; font-variant-numeric: normal; font-variant-east-asian: normal; font-variant-alternates: normal; font-size-adjust: none; font-kerning: auto; font-optical-sizing: auto; font-feature-settings: normal; font-variation-settings: normal; font-variant-position: normal; font-variant-emoji: normal; font-stretch: normal; line-height: normal; font-family: &amp;quot;Helvetica Neue&amp;quot;; text-align: start;&quot; class=&quot;p1&quot;&gt;Elephant&lt;/p&gt;" style="rounded=1;whiteSpace=wrap;html=1;glass=0;strokeWidth=1;shadow=0;strokeColor=default;align=center;verticalAlign=middle;fontFamily=Helvetica;fontSize=8;fontColor=default;fillColor=default;" parent="WIyWlLk6GJQsqaUBKTNV-1" vertex="1">
          <mxGeometry x="-280" y="980" width="60" height="20" as="geometry" />
        </mxCell>
        <mxCell id="xzr1AYg_U-AbGogxpXCZ-210" value="Dog" style="rounded=1;whiteSpace=wrap;html=1;glass=0;strokeWidth=1;shadow=0;fontSize=8;" parent="WIyWlLk6GJQsqaUBKTNV-1" vertex="1">
          <mxGeometry x="-280" y="1020" width="60" height="20" as="geometry" />
        </mxCell>
        <mxCell id="xzr1AYg_U-AbGogxpXCZ-211" value="Match word" style="rounded=0;whiteSpace=wrap;html=1;align=left;fontSize=10;" parent="WIyWlLk6GJQsqaUBKTNV-1" vertex="1">
          <mxGeometry x="-400.0000000000001" y="960" width="80" height="20" as="geometry" />
        </mxCell>
        <mxCell id="xzr1AYg_U-AbGogxpXCZ-212" value="&lt;p style=&quot;margin: 0px; font-variant-numeric: normal; font-variant-east-asian: normal; font-variant-alternates: normal; font-size-adjust: none; font-kerning: auto; font-optical-sizing: auto; font-feature-settings: normal; font-variation-settings: normal; font-variant-position: normal; font-variant-emoji: normal; font-stretch: normal; line-height: normal; font-family: &amp;quot;Helvetica Neue&amp;quot;; text-align: start;&quot; class=&quot;p1&quot;&gt;แมว&lt;br&gt;maeo&lt;/p&gt;" style="rounded=1;whiteSpace=wrap;html=1;glass=0;strokeWidth=1;shadow=0;strokeColor=default;align=center;verticalAlign=middle;fontFamily=Helvetica;fontSize=8;fontColor=default;fillColor=default;" parent="WIyWlLk6GJQsqaUBKTNV-1" vertex="1">
          <mxGeometry x="-340.00000000000006" y="1000" width="60" height="20" as="geometry" />
        </mxCell>
        <mxCell id="xzr1AYg_U-AbGogxpXCZ-213" value="&lt;p style=&quot;margin: 0px; font-variant-numeric: normal; font-variant-east-asian: normal; font-variant-alternates: normal; font-size-adjust: none; font-kerning: auto; font-optical-sizing: auto; font-feature-settings: normal; font-variation-settings: normal; font-variant-position: normal; font-variant-emoji: normal; font-stretch: normal; line-height: normal; font-family: &amp;quot;Helvetica Neue&amp;quot;; text-align: start;&quot; class=&quot;p1&quot;&gt;Cat&lt;/p&gt;" style="rounded=1;whiteSpace=wrap;html=1;glass=0;strokeWidth=1;shadow=0;strokeColor=default;align=center;verticalAlign=middle;fontFamily=Helvetica;fontSize=8;fontColor=default;fillColor=default;" parent="WIyWlLk6GJQsqaUBKTNV-1" vertex="1">
          <mxGeometry x="-280.00000000000006" y="1000" width="60" height="20" as="geometry" />
        </mxCell>
        <mxCell id="xzr1AYg_U-AbGogxpXCZ-214" value="&lt;h3&gt;&lt;span style=&quot;font-weight: normal;&quot;&gt;ช้าง&lt;/span&gt;&lt;/h3&gt;" style="rounded=1;whiteSpace=wrap;html=1;glass=0;strokeWidth=1;shadow=0;fontSize=6;fontStyle=0" parent="WIyWlLk6GJQsqaUBKTNV-1" vertex="1">
          <mxGeometry x="-342.27" y="1090" width="60" height="20" as="geometry" />
        </mxCell>
        <mxCell id="xzr1AYg_U-AbGogxpXCZ-215" value="&lt;p style=&quot;margin: 0px; font-variant-numeric: normal; font-variant-east-asian: normal; font-variant-alternates: normal; font-size-adjust: none; font-kerning: auto; font-optical-sizing: auto; font-feature-settings: normal; font-variation-settings: normal; font-variant-position: normal; font-variant-emoji: normal; font-stretch: normal; line-height: normal; font-family: &amp;quot;Helvetica Neue&amp;quot;; text-align: start;&quot; class=&quot;p1&quot;&gt;หมา&lt;/p&gt;" style="rounded=1;whiteSpace=wrap;html=1;glass=0;strokeWidth=1;shadow=0;fontSize=8;fontStyle=0" parent="WIyWlLk6GJQsqaUBKTNV-1" vertex="1">
          <mxGeometry x="-342.27" y="1130" width="60" height="20" as="geometry" />
        </mxCell>
        <mxCell id="xzr1AYg_U-AbGogxpXCZ-216" value="&lt;p style=&quot;margin: 0px; font-variant-numeric: normal; font-variant-east-asian: normal; font-variant-alternates: normal; font-size-adjust: none; font-kerning: auto; font-optical-sizing: auto; font-feature-settings: normal; font-variation-settings: normal; font-variant-position: normal; font-variant-emoji: normal; font-stretch: normal; line-height: normal; font-family: &amp;quot;Helvetica Neue&amp;quot;; text-align: start;&quot; class=&quot;p1&quot;&gt;Elephant&lt;/p&gt;" style="rounded=1;whiteSpace=wrap;html=1;glass=0;strokeWidth=1;shadow=0;strokeColor=default;align=center;verticalAlign=middle;fontFamily=Helvetica;fontSize=8;fontColor=default;fillColor=default;" parent="WIyWlLk6GJQsqaUBKTNV-1" vertex="1">
          <mxGeometry x="-282.27" y="1090" width="60" height="20" as="geometry" />
        </mxCell>
        <mxCell id="xzr1AYg_U-AbGogxpXCZ-217" value="Dog" style="rounded=1;whiteSpace=wrap;html=1;glass=0;strokeWidth=1;shadow=0;fontSize=8;" parent="WIyWlLk6GJQsqaUBKTNV-1" vertex="1">
          <mxGeometry x="-282.27" y="1130" width="60" height="20" as="geometry" />
        </mxCell>
        <mxCell id="xzr1AYg_U-AbGogxpXCZ-218" value="Match word" style="rounded=0;whiteSpace=wrap;html=1;align=left;fontSize=10;fillColor=#dae8fc;strokeColor=#6c8ebf;" parent="WIyWlLk6GJQsqaUBKTNV-1" vertex="1">
          <mxGeometry x="-402.2700000000001" y="1070" width="80" height="20" as="geometry" />
        </mxCell>
        <mxCell id="xzr1AYg_U-AbGogxpXCZ-219" value="&lt;p style=&quot;margin: 0px; font-variant-numeric: normal; font-variant-east-asian: normal; font-variant-alternates: normal; font-size-adjust: none; font-kerning: auto; font-optical-sizing: auto; font-feature-settings: normal; font-variation-settings: normal; font-variant-position: normal; font-variant-emoji: normal; font-stretch: normal; line-height: normal; font-family: &amp;quot;Helvetica Neue&amp;quot;; text-align: start;&quot; class=&quot;p1&quot;&gt;แมว&lt;br&gt;&lt;/p&gt;" style="rounded=1;whiteSpace=wrap;html=1;glass=0;strokeWidth=1;shadow=0;strokeColor=default;align=center;verticalAlign=middle;fontFamily=Helvetica;fontSize=8;fontColor=default;fillColor=default;" parent="WIyWlLk6GJQsqaUBKTNV-1" vertex="1">
          <mxGeometry x="-342.27000000000004" y="1110" width="60" height="20" as="geometry" />
        </mxCell>
        <mxCell id="xzr1AYg_U-AbGogxpXCZ-220" value="&lt;p style=&quot;margin: 0px; font-variant-numeric: normal; font-variant-east-asian: normal; font-variant-alternates: normal; font-size-adjust: none; font-kerning: auto; font-optical-sizing: auto; font-feature-settings: normal; font-variation-settings: normal; font-variant-position: normal; font-variant-emoji: normal; font-stretch: normal; line-height: normal; font-family: &amp;quot;Helvetica Neue&amp;quot;; text-align: start;&quot; class=&quot;p1&quot;&gt;Cat&lt;/p&gt;" style="rounded=1;whiteSpace=wrap;html=1;glass=0;strokeWidth=1;shadow=0;strokeColor=default;align=center;verticalAlign=middle;fontFamily=Helvetica;fontSize=8;fontColor=default;fillColor=default;" parent="WIyWlLk6GJQsqaUBKTNV-1" vertex="1">
          <mxGeometry x="-282.27000000000004" y="1110" width="60" height="20" as="geometry" />
        </mxCell>
        <mxCell id="xzr1AYg_U-AbGogxpXCZ-222" style="edgeStyle=orthogonalEdgeStyle;rounded=0;orthogonalLoop=1;jettySize=auto;html=1;entryX=0.5;entryY=0;entryDx=0;entryDy=0;curved=1;startArrow=classic;startFill=1;exitX=0.5;exitY=0;exitDx=0;exitDy=0;" parent="WIyWlLk6GJQsqaUBKTNV-1" source="xzr1AYg_U-AbGogxpXCZ-200" target="xzr1AYg_U-AbGogxpXCZ-202" edge="1">
          <mxGeometry relative="1" as="geometry">
            <mxPoint x="-302" y="770" as="sourcePoint" />
            <mxPoint x="-242" y="770" as="targetPoint" />
          </mxGeometry>
        </mxCell>
        <mxCell id="xzr1AYg_U-AbGogxpXCZ-223" style="edgeStyle=orthogonalEdgeStyle;rounded=0;orthogonalLoop=1;jettySize=auto;html=1;entryX=0.5;entryY=0;entryDx=0;entryDy=0;curved=1;startArrow=classic;startFill=1;exitX=0.5;exitY=0;exitDx=0;exitDy=0;" parent="WIyWlLk6GJQsqaUBKTNV-1" source="xzr1AYg_U-AbGogxpXCZ-207" target="xzr1AYg_U-AbGogxpXCZ-209" edge="1">
          <mxGeometry relative="1" as="geometry">
            <mxPoint x="-300" y="880" as="sourcePoint" />
            <mxPoint x="-240" y="880" as="targetPoint" />
          </mxGeometry>
        </mxCell>
        <mxCell id="xzr1AYg_U-AbGogxpXCZ-224" style="edgeStyle=orthogonalEdgeStyle;rounded=0;orthogonalLoop=1;jettySize=auto;html=1;entryX=0.5;entryY=0;entryDx=0;entryDy=0;curved=1;startArrow=classic;startFill=1;exitX=0.5;exitY=0;exitDx=0;exitDy=0;" parent="WIyWlLk6GJQsqaUBKTNV-1" source="xzr1AYg_U-AbGogxpXCZ-214" target="xzr1AYg_U-AbGogxpXCZ-216" edge="1">
          <mxGeometry relative="1" as="geometry">
            <mxPoint x="-300" y="990" as="sourcePoint" />
            <mxPoint x="-240" y="990" as="targetPoint" />
          </mxGeometry>
        </mxCell>
        <mxCell id="xzr1AYg_U-AbGogxpXCZ-225" value="Random Calumn" style="text;html=1;align=center;verticalAlign=middle;whiteSpace=wrap;rounded=0;fontSize=6;" parent="WIyWlLk6GJQsqaUBKTNV-1" vertex="1">
          <mxGeometry x="-310" y="1075" width="50" height="10" as="geometry" />
        </mxCell>
        <mxCell id="xzr1AYg_U-AbGogxpXCZ-226" value="Random Calumn" style="text;html=1;align=center;verticalAlign=middle;whiteSpace=wrap;rounded=0;fontSize=6;" parent="WIyWlLk6GJQsqaUBKTNV-1" vertex="1">
          <mxGeometry x="-306" y="964" width="50" height="10" as="geometry" />
        </mxCell>
        <mxCell id="xzr1AYg_U-AbGogxpXCZ-227" value="Random Calumn" style="text;html=1;align=center;verticalAlign=middle;whiteSpace=wrap;rounded=0;fontSize=6;" parent="WIyWlLk6GJQsqaUBKTNV-1" vertex="1">
          <mxGeometry x="-305" y="853" width="50" height="10" as="geometry" />
        </mxCell>
        <mxCell id="xzr1AYg_U-AbGogxpXCZ-228" value="Random Calumn" style="text;html=1;align=center;verticalAlign=middle;whiteSpace=wrap;rounded=0;fontSize=6;" parent="WIyWlLk6GJQsqaUBKTNV-1" vertex="1">
          <mxGeometry x="-308" y="742" width="50" height="10" as="geometry" />
        </mxCell>
      </root>
    </mxGraphModel>
  </diagram>
</mxfile>
